<svg id="Lag_1" data-name="Lag 1" xmlns="http://www.w3.org/2000/svg" viewBox="0 0 168.23 94.63"><defs><style>.cls-1{fill:#f6f6f6;}.cls-2{fill:#b9b9b8;}.cls-3{fill:#0089e0;}.cls-4,.cls-5{fill:none;stroke:#fff;stroke-miterlimit:10;}.cls-5{stroke-dasharray:6.01 4;}.cls-6{fill:#fff;}</style></defs><title>DW</title><rect class="cls-1" x="-8.38" y="-10.18" width="185" height="115"/><rect class="cls-2" width="168.23" height="94.63"/><rect class="cls-3" x="97.17" y="23.56" width="70.07" height="70.07"/><polyline class="cls-4" points="167.23 90.63 167.23 93.63 164.23 93.63"/><line class="cls-5" x1="160.23" y1="93.63" x2="102.17" y2="93.63"/><polyline class="cls-4" points="100.17 93.63 97.17 93.63 97.17 90.63"/><line class="cls-5" x1="97.17" y1="86.63" x2="97.17" y2="28.57"/><polyline class="cls-4" points="97.17 26.56 97.17 23.56 100.17 23.56"/><line class="cls-5" x1="104.17" y1="23.56" x2="162.23" y2="23.56"/><polyline class="cls-4" points="164.23 23.56 167.23 23.56 167.23 26.56"/><line class="cls-5" x1="167.23" y1="30.57" x2="167.23" y2="88.63"/><rect class="cls-3" x="87.15" y="35.09" width="20.11" height="20.11" rx="10.06" ry="10.06" transform="translate(194.42 90.3) rotate(-180)"/><circle class="cls-6" cx="97.7" cy="45.13" r="0.29" transform="translate(46.15 139.6) rotate(-86.17)"/><path class="cls-2" d="M97.13,56.91A12.07,12.07,0,0,1,85.06,44.84h0A12.07,12.07,0,0,1,97.13,32.77h0.27V56.9H97.13Z"/><path class="cls-6" d="M92.34,53.21l5.24-6.38-1.26-1.4c-0.84,1.27-2.12,3.22-3.6,5.42a2.86,2.86,0,0,0-.38,2.36h0Z"/><path class="cls-6" d="M103.13,51.64a3.23,3.23,0,0,0-.61-1.91c-0.75-1-6.48-8.07-6.48-8.07-0.12-.28-0.25-0.58-0.37-0.92l0-.09h0a3.11,3.11,0,0,0-.54-0.88,2.91,2.91,0,0,0-2-1,2,2,0,0,0-1.5.48,2.5,2.5,0,0,0,.07,3.5,2.9,2.9,0,0,0,2,1,2,2,0,0,0,1.49-.47l8,9.12V51.64Zm-8.76-9.28a0.86,0.86,0,0,1-.63.18,1.7,1.7,0,0,1-1.13-.6,1.33,1.33,0,0,1-.18-1.79A0.85,0.85,0,0,1,93.06,40a1.72,1.72,0,0,1,1.13.61A1.33,1.33,0,0,1,94.37,42.35Z"/><path class="cls-6" d="M99.3,44.86l0.83-.91a2,2,0,0,0,1.51.43,2.91,2.91,0,0,0,1.93-1.07,2.5,2.5,0,0,0,0-3.5,2,2,0,0,0-1.52-.44,2.91,2.91,0,0,0-1.93,1.07,3.16,3.16,0,0,0-.52.9h0l0,0.08a7.34,7.34,0,0,1-1.39,2.11ZM101,41.22a1.72,1.72,0,0,1,1.11-.64,0.85,0.85,0,0,1,.63.17,1.33,1.33,0,0,1-.13,1.8,1.7,1.7,0,0,1-1.11.64,0.85,0.85,0,0,1-.63-0.17A1.33,1.33,0,0,1,101,41.22Z"/></svg>