<svg id="Lag_1" data-name="Lag 1" xmlns="http://www.w3.org/2000/svg" viewBox="0 0 115 74"><defs><style>.cls-1{fill:#f7f7f7;}.cls-2{fill:#b9b9b8;}.cls-3{fill:#fff;}.cls-4{fill:#d4d3d2;}.cls-5{fill:#3189dd;}.cls-6{fill:#4dc1f8;}.cls-7{fill:#44413f;}.cls-8{font-size:17.45px;fill:#f5f5f5;font-family:Myriad Pro;}</style></defs><title>DW</title><rect class="cls-1" width="115" height="74"/><path class="cls-2" d="M20,10H95a5,5,0,0,1,5,5V57.29A2.71,2.71,0,0,1,97.29,60H17.71A2.71,2.71,0,0,1,15,57.29V15A5,5,0,0,1,20,10Z"/><rect class="cls-2" x="6" y="61" width="103" height="6" rx="1.44" ry="1.44"/><rect class="cls-3" x="18" y="15" width="79" height="42"/><circle class="cls-1" cx="57.5" cy="12.5" r="1.5"/><path class="cls-4" d="M45,61H70a0,0,0,0,1,0,0v0a2,2,0,0,1-2,2H47a2,2,0,0,1-2-2v0A0,0,0,0,1,45,61Z"/><rect class="cls-5" x="27" y="32" width="9.12" height="9.21" rx="2.34" ry="2.34"/><rect class="cls-4" x="27" y="17" width="61" height="13" rx="2.41" ry="2.41"/><rect class="cls-6" x="27" y="43.51" width="9.21" height="1.15"/><rect class="cls-6" x="27" y="45.81" width="7.23" height="1.15"/><rect class="cls-6" x="27" y="48.11" width="7.89" height="1.15"/><rect class="cls-6" x="27" y="50.41" width="5.18" height="1.15"/><rect class="cls-4" x="37.36" y="32" width="9.12" height="9.21" rx="2.34" ry="2.34"/><rect class="cls-4" x="37.36" y="43.51" width="9.21" height="1.15"/><rect class="cls-4" x="37.36" y="45.81" width="7.23" height="1.15"/><rect class="cls-4" x="37.36" y="48.11" width="7.89" height="1.15"/><rect class="cls-4" x="37.36" y="50.41" width="5.18" height="1.15"/><rect class="cls-4" x="47.71" y="32" width="9.12" height="9.21" rx="2.34" ry="2.34"/><rect class="cls-4" x="47.71" y="43.51" width="9.21" height="1.15"/><rect class="cls-4" x="47.71" y="45.81" width="7.23" height="1.15"/><rect class="cls-4" x="47.71" y="48.11" width="7.89" height="1.15"/><rect class="cls-4" x="47.71" y="50.41" width="5.18" height="1.15"/><rect class="cls-4" x="58.12" y="32" width="9.12" height="9.21" rx="2.34" ry="2.34"/><rect class="cls-4" x="58.12" y="43.51" width="9.21" height="1.15"/><rect class="cls-4" x="58.12" y="45.81" width="7.23" height="1.15"/><rect class="cls-4" x="58.12" y="48.11" width="7.89" height="1.15"/><rect class="cls-4" x="58.12" y="50.41" width="5.18" height="1.15"/><rect class="cls-4" x="68.47" y="32" width="9.12" height="9.21" rx="2.34" ry="2.34"/><rect class="cls-4" x="68.47" y="43.51" width="9.21" height="1.15"/><rect class="cls-4" x="68.47" y="45.81" width="7.23" height="1.15"/><rect class="cls-4" x="68.47" y="48.11" width="7.89" height="1.15"/><rect class="cls-4" x="68.47" y="50.41" width="5.18" height="1.15"/><rect class="cls-4" x="78.83" y="32" width="9.12" height="9.21" rx="2.34" ry="2.34"/><rect class="cls-4" x="78.83" y="43.51" width="9.21" height="1.15"/><rect class="cls-4" x="78.83" y="45.81" width="7.23" height="1.15"/><rect class="cls-4" x="78.83" y="48.11" width="7.89" height="1.15"/><rect class="cls-4" x="78.83" y="50.41" width="5.18" height="1.15"/><rect class="cls-7" y="3.02" width="32" height="17.45"/><path class="cls-1" d="M13.23,17.57H11.83v-9a7.28,7.28,0,0,1-1.33,1A9.42,9.42,0,0,1,9,10.3V8.94A8.47,8.47,0,0,0,11.08,7.6a5.26,5.26,0,0,0,1.25-1.53h0.91v11.5Z"/><path class="cls-1" d="M16.17,17.76L19.49,5.92h1.13L17.3,17.76H16.17Z"/><text class="cls-8" transform="translate(21.82 17.57)">6</text></svg>