<svg id="Lag_1" data-name="Lag 1" xmlns="http://www.w3.org/2000/svg" viewBox="0 0 115 74"><defs><style>.cls-1{fill:#f7f7f7;}.cls-2{fill:#b9b9b8;}.cls-3{fill:#fff;}.cls-4{fill:#d4d3d2;}.cls-5{fill:#3189dd;}.cls-6{fill:#4dc1f8;}.cls-7{fill:#44413f;}</style></defs><title>DW</title><rect class="cls-1" width="115" height="74"/><path class="cls-2" d="M20,10H95a5,5,0,0,1,5,5V57.29A2.71,2.71,0,0,1,97.29,60H17.71A2.71,2.71,0,0,1,15,57.29V15A5,5,0,0,1,20,10Z"/><rect class="cls-2" x="6" y="61" width="103" height="6" rx="1.44" ry="1.44"/><rect class="cls-3" x="18" y="15" width="79" height="42"/><circle class="cls-1" cx="57.5" cy="12.5" r="1.5"/><path class="cls-4" d="M45,61H70a0,0,0,0,1,0,0v0a2,2,0,0,1-2,2H47a2,2,0,0,1-2-2v0A0,0,0,0,1,45,61Z"/><rect class="cls-5" x="27" y="32" width="29" height="16" rx="2.34" ry="2.34"/><rect class="cls-4" x="74.14" y="32" width="13.86" height="8" rx="2.34" ry="2.34"/><rect class="cls-4" x="58.14" y="32" width="13.86" height="8" rx="2.34" ry="2.34"/><rect class="cls-4" x="27" y="17" width="61" height="13" rx="2.41" ry="2.41"/><rect class="cls-4" x="74" y="42" width="14" height="1"/><rect class="cls-4" x="74" y="44" width="11" height="1"/><rect class="cls-4" x="74" y="46" width="12" height="1"/><rect class="cls-4" x="74" y="48" width="7.88" height="1"/><rect class="cls-4" x="58" y="42" width="14" height="1"/><rect class="cls-4" x="58" y="44" width="11" height="1"/><rect class="cls-4" x="58" y="46" width="12" height="1"/><rect class="cls-4" x="58" y="48" width="7.88" height="1"/><rect class="cls-6" x="27" y="50" width="29" height="1"/><rect class="cls-6" x="27" y="52" width="22.79" height="1"/><rect class="cls-6" x="27" y="54" width="24.86" height="1"/><rect class="cls-7" y="3" width="32" height="17.45"/><path class="cls-1" d="M13.23,17.55H11.83v-9a7.28,7.28,0,0,1-1.33,1A9.42,9.42,0,0,1,9,10.28V8.92a8.47,8.47,0,0,0,2.06-1.34A5.26,5.26,0,0,0,12.33,6h0.91v11.5Z"/><path class="cls-1" d="M16.17,17.74L19.49,5.9h1.13L17.3,17.74H16.17Z"/><path class="cls-1" d="M28.67,16.19v1.35H21.1a2.48,2.48,0,0,1,.16-1A5.17,5.17,0,0,1,22.19,15,14.58,14.58,0,0,1,24,13.31a15.55,15.55,0,0,0,2.52-2.43,2.9,2.9,0,0,0,.66-1.69,1.87,1.87,0,0,0-.6-1.41,2.15,2.15,0,0,0-1.56-.57,2.2,2.2,0,0,0-1.62.61,2.31,2.31,0,0,0-.62,1.69l-1.44-.15a3.56,3.56,0,0,1,1.12-2.46A3.81,3.81,0,0,1,25.09,6,3.63,3.63,0,0,1,27.69,7a3,3,0,0,1,1,2.27,3.44,3.44,0,0,1-.28,1.35,5.25,5.25,0,0,1-.93,1.4,22.82,22.82,0,0,1-2.17,2Q24,15.05,23.65,15.43a4.62,4.62,0,0,0-.59.76h5.62Z"/></svg>