<svg id="Lag_1" data-name="Lag 1" xmlns="http://www.w3.org/2000/svg" viewBox="0 0 115 74"><defs><style>.cls-1{fill:#f7f7f7;}.cls-2{fill:#b9b9b8;}.cls-3{fill:#fff;}.cls-4{fill:#d4d3d2;}.cls-5{fill:#3189dd;}.cls-6{fill:#4dc1f8;}.cls-7{fill:#44413f;}.cls-8{font-size:15.22px;fill:#f5f5f5;font-family:Myriad Pro;}</style></defs><title>DW</title><rect class="cls-1" width="115" height="74"/><path class="cls-2" d="M20,10H95a5,5,0,0,1,5,5V57.29A2.71,2.71,0,0,1,97.29,60H17.71A2.71,2.71,0,0,1,15,57.29V15A5,5,0,0,1,20,10Z"/><rect class="cls-2" x="6" y="61" width="103" height="6" rx="1.44" ry="1.44"/><rect class="cls-3" x="18" y="15" width="79" height="42"/><circle class="cls-1" cx="57.5" cy="12.5" r="1.5"/><path class="cls-4" d="M45,61H70a0,0,0,0,1,0,0v0a2,2,0,0,1-2,2H47a2,2,0,0,1-2-2v0A0,0,0,0,1,45,61Z"/><rect class="cls-4" x="27" y="17" width="61" height="13" rx="2.41" ry="2.41"/><rect class="cls-5" x="38" y="32" width="39.9" height="21" rx="2.34" ry="2.34"/><rect class="cls-6" x="38" y="55" width="16" height="1"/><rect class="cls-7" y="3" width="41.5" height="16.6"/><text class="cls-8" transform="translate(30.43 16.83)">C</text><path class="cls-1" d="M14.58,15.55v1.29H7.38a2.36,2.36,0,0,1,.16-0.93,4.92,4.92,0,0,1,.88-1.45,13.87,13.87,0,0,1,1.75-1.65,14.78,14.78,0,0,0,2.4-2.31,2.76,2.76,0,0,0,.62-1.61,1.78,1.78,0,0,0-.57-1.34A2,2,0,0,0,11.14,7a2.09,2.09,0,0,0-1.55.58A2.2,2.2,0,0,0,9,9.19L7.63,9A3.38,3.38,0,0,1,8.69,6.7a3.62,3.62,0,0,1,2.47-.81,3.45,3.45,0,0,1,2.48.87,2.85,2.85,0,0,1,.91,2.15,3.27,3.27,0,0,1-.27,1.29,5,5,0,0,1-.89,1.33,21.7,21.7,0,0,1-2.06,1.92q-1.2,1-1.55,1.37a4.39,4.39,0,0,0-.56.72h5.34Z"/><path class="cls-1" d="M15.38,17L18.54,5.76h1.07L16.46,17H15.38Z"/><path class="cls-1" d="M20.25,14l1.34-.18a2.94,2.94,0,0,0,.78,1.64,1.93,1.93,0,0,0,1.35.5,2.16,2.16,0,0,0,1.59-.65A2.21,2.21,0,0,0,26,13.65a2.05,2.05,0,0,0-.6-1.52,2.08,2.08,0,0,0-1.53-.6,3.84,3.84,0,0,0-.94.15L23,10.5h0.22a2.75,2.75,0,0,0,1.54-.45,1.52,1.52,0,0,0,.68-1.37A1.63,1.63,0,0,0,25,7.48,1.77,1.77,0,0,0,23.69,7a1.82,1.82,0,0,0-1.3.49A2.46,2.46,0,0,0,21.72,9l-1.34-.24a3.44,3.44,0,0,1,1.11-2.08,3.22,3.22,0,0,1,2.16-.74,3.57,3.57,0,0,1,1.64.38,2.78,2.78,0,0,1,1.15,1,2.68,2.68,0,0,1,.4,1.4A2.3,2.3,0,0,1,26.46,10a2.59,2.59,0,0,1-1.12.92,2.53,2.53,0,0,1,1.5.93,2.81,2.81,0,0,1,.53,1.76,3.22,3.22,0,0,1-1,2.42,3.66,3.66,0,0,1-2.63,1,3.42,3.42,0,0,1-2.38-.85A3.31,3.31,0,0,1,20.25,14Z"/></svg>