<svg id="Lag_1" data-name="Lag 1" xmlns="http://www.w3.org/2000/svg" viewBox="0 0 115 74"><defs><style>.cls-1{fill:#f7f7f7;}.cls-2{fill:#b9b9b8;}.cls-3{fill:#fff;}.cls-4{fill:#d4d3d2;}.cls-5{fill:#44413f;}.cls-6{fill:#3189dd;}</style></defs><title>DW</title><rect class="cls-1" width="115" height="74"/><path class="cls-2" d="M20,10H95a5,5,0,0,1,5,5V57.29A2.71,2.71,0,0,1,97.29,60H17.71A2.71,2.71,0,0,1,15,57.29V15A5,5,0,0,1,20,10Z"/><rect class="cls-2" x="6" y="61" width="103" height="6" rx="1.44" ry="1.44"/><rect class="cls-3" x="18" y="15" width="79" height="42"/><circle class="cls-1" cx="57.5" cy="12.5" r="1.5"/><path class="cls-4" d="M45,61H70a0,0,0,0,1,0,0v0a2,2,0,0,1-2,2H47a2,2,0,0,1-2-2v0A0,0,0,0,1,45,61Z"/><rect class="cls-4" x="27" y="17" width="61" height="13" rx="2.41" ry="2.41"/><rect class="cls-5" y="3" width="32" height="17.45"/><rect class="cls-6" x="27" y="32" width="45" height="23" rx="2.34" ry="2.34"/><rect class="cls-4" x="74.14" y="32" width="13.86" height="8" rx="2.34" ry="2.34"/><rect class="cls-4" x="74" y="42" width="14" height="1"/><rect class="cls-4" x="74" y="44" width="11" height="1"/><rect class="cls-4" x="74" y="46" width="12" height="1"/><rect class="cls-4" x="74" y="48" width="7.88" height="1"/><path class="cls-1" d="M7.94,14.52l1.41-.19a3.09,3.09,0,0,0,.82,1.72,2,2,0,0,0,1.42.53,2.27,2.27,0,0,0,1.68-.69,2.32,2.32,0,0,0,.68-1.7,2.16,2.16,0,0,0-.63-1.6A2.19,2.19,0,0,0,11.71,12a4,4,0,0,0-1,.16l0.16-1.23,0.23,0a2.89,2.89,0,0,0,1.62-.47A1.6,1.6,0,0,0,13.44,9a1.71,1.71,0,0,0-.52-1.28,1.86,1.86,0,0,0-1.35-.51,1.91,1.91,0,0,0-1.37.52,2.58,2.58,0,0,0-.7,1.55L8.09,9A3.62,3.62,0,0,1,9.26,6.82,3.39,3.39,0,0,1,11.53,6a3.76,3.76,0,0,1,1.73.4,2.92,2.92,0,0,1,1.21,1.1A2.82,2.82,0,0,1,14.88,9a2.42,2.42,0,0,1-.4,1.35,2.72,2.72,0,0,1-1.18,1,2.66,2.66,0,0,1,1.58,1,3,3,0,0,1,.56,1.85,3.38,3.38,0,0,1-1.09,2.54,3.85,3.85,0,0,1-2.77,1,3.6,3.6,0,0,1-2.5-.9A3.48,3.48,0,0,1,7.94,14.52Z"/><path class="cls-1" d="M16.17,17.74L19.49,5.9h1.13L17.3,17.74H16.17Z"/><path class="cls-1" d="M25.79,17.55V14.8h-5V13.51L26,6.09h1.15v7.42h1.55V14.8H27.19v2.74H25.79Zm0-4V8.35L22.2,13.51h3.59Z"/></svg>