<svg id="Lag_7" data-name="Lag 7" xmlns="http://www.w3.org/2000/svg" viewBox="0 0 115 74"><defs><style>.cls-1{fill:#f7f7f7;}.cls-2{fill:#b9b9b8;}.cls-3,.cls-8{fill:#fff;}.cls-4{fill:#d4d3d2;}.cls-5{fill:#3189dd;}.cls-6{fill:#4dc1f8;}.cls-7{fill:#44413f;}.cls-8{font-size:16px;font-family:Arial;}</style></defs><title>DW</title><rect class="cls-1" width="115" height="74"/><path class="cls-2" d="M20,10H95a5,5,0,0,1,5,5V57.29A2.71,2.71,0,0,1,97.29,60H17.71A2.71,2.71,0,0,1,15,57.29V15A5,5,0,0,1,20,10Z"/><rect class="cls-2" x="6" y="61" width="103" height="6" rx="1.44" ry="1.44"/><rect class="cls-3" x="18" y="15" width="79" height="42"/><circle class="cls-1" cx="57.5" cy="12.5" r="1.5"/><path class="cls-4" d="M45,61H70a0,0,0,0,1,0,0v0a2,2,0,0,1-2,2H47a2,2,0,0,1-2-2v0A0,0,0,0,1,45,61Z"/><rect class="cls-5" x="27" y="32" width="4.05" height="4.76" rx="2.03" ry="2.03"/><rect class="cls-4" x="32.15" y="32" width="4.05" height="4.76" rx="2.03" ry="2.03"/><rect class="cls-4" x="37.29" y="32" width="4.05" height="4.76" rx="2.03" ry="2.03"/><rect class="cls-4" x="42.59" y="32" width="4.05" height="4.76" rx="2.03" ry="2.03"/><rect class="cls-4" x="47.74" y="32" width="4.05" height="4.76" rx="2.03" ry="2.03"/><rect class="cls-4" x="52.73" y="32" width="4.05" height="4.76" rx="2.03" ry="2.03"/><rect class="cls-4" x="27" y="17" width="61" height="13" rx="2.41" ry="2.41"/><rect class="cls-6" x="27" y="39" width="3.93" height="1"/><rect class="cls-6" x="27" y="41" width="3.09" height="1"/><rect class="cls-6" x="27" y="43" width="3.37" height="1"/><rect class="cls-6" x="27" y="45" width="2.21" height="1"/><rect class="cls-4" x="32.4" y="39" width="3.93" height="1"/><rect class="cls-4" x="32.4" y="41" width="3.09" height="1"/><rect class="cls-4" x="32.4" y="43" width="3.37" height="1"/><rect class="cls-4" x="32.4" y="45" width="2.21" height="1"/><rect class="cls-4" x="37.31" y="39" width="3.93" height="1"/><rect class="cls-4" x="37.31" y="41" width="3.09" height="1"/><rect class="cls-4" x="37.31" y="43" width="3.37" height="1"/><rect class="cls-4" x="37.31" y="45" width="2.21" height="1"/><rect class="cls-4" x="42.71" y="39" width="3.93" height="1"/><rect class="cls-4" x="42.71" y="41" width="3.09" height="1"/><rect class="cls-4" x="42.71" y="43" width="3.37" height="1"/><rect class="cls-4" x="42.71" y="45" width="2.21" height="1"/><rect class="cls-4" x="47.62" y="39" width="3.93" height="1"/><rect class="cls-4" x="47.62" y="41" width="3.09" height="1"/><rect class="cls-4" x="47.62" y="43" width="3.37" height="1"/><rect class="cls-4" x="47.62" y="45" width="2.21" height="1"/><rect class="cls-4" x="53.02" y="39" width="3.93" height="1"/><rect class="cls-4" x="53.02" y="41" width="3.09" height="1"/><rect class="cls-4" x="53.02" y="43" width="3.37" height="1"/><rect class="cls-4" x="53.02" y="45" width="2.21" height="1"/><rect class="cls-4" x="58.18" y="32" width="4.05" height="4.76" rx="2.03" ry="2.03"/><rect class="cls-4" x="63.32" y="32" width="4.05" height="4.76" rx="2.03" ry="2.03"/><rect class="cls-4" x="68.47" y="32" width="4.05" height="4.76" rx="2.03" ry="2.03"/><rect class="cls-4" x="73.77" y="32" width="4.05" height="4.76" rx="2.03" ry="2.03"/><rect class="cls-4" x="78.92" y="32" width="4.05" height="4.76" rx="2.03" ry="2.03"/><rect class="cls-4" x="83.9" y="32" width="4.05" height="4.76" rx="2.03" ry="2.03"/><rect class="cls-4" x="58.18" y="39" width="3.93" height="1"/><rect class="cls-4" x="58.18" y="41" width="3.09" height="1"/><rect class="cls-4" x="58.18" y="43" width="3.37" height="1"/><rect class="cls-4" x="58.18" y="45" width="2.21" height="1"/><rect class="cls-4" x="63.58" y="39" width="3.93" height="1"/><rect class="cls-4" x="63.58" y="41" width="3.09" height="1"/><rect class="cls-4" x="63.58" y="43" width="3.37" height="1"/><rect class="cls-4" x="63.58" y="45" width="2.21" height="1"/><rect class="cls-4" x="68.49" y="39" width="3.93" height="1"/><rect class="cls-4" x="68.49" y="41" width="3.09" height="1"/><rect class="cls-4" x="68.49" y="43" width="3.37" height="1"/><rect class="cls-4" x="68.49" y="45" width="2.21" height="1"/><rect class="cls-4" x="73.89" y="39" width="3.93" height="1"/><rect class="cls-4" x="73.89" y="41" width="3.09" height="1"/><rect class="cls-4" x="73.89" y="43" width="3.37" height="1"/><rect class="cls-4" x="73.89" y="45" width="2.21" height="1"/><rect class="cls-4" x="78.79" y="39" width="3.93" height="1"/><rect class="cls-4" x="78.79" y="41" width="3.09" height="1"/><rect class="cls-4" x="78.79" y="43" width="3.37" height="1"/><rect class="cls-4" x="78.79" y="45" width="2.21" height="1"/><rect class="cls-4" x="84.19" y="39" width="3.93" height="1"/><rect class="cls-4" x="84.19" y="41" width="3.09" height="1"/><rect class="cls-4" x="84.19" y="43" width="3.37" height="1"/><rect class="cls-4" x="84.19" y="45" width="2.21" height="1"/><rect class="cls-7" y="3" width="41.25" height="17.45"/><path class="cls-1" d="M13.23,17.55H11.83v-9a7.28,7.28,0,0,1-1.33,1A9.42,9.42,0,0,1,9,10.28V8.92a8.47,8.47,0,0,0,2.06-1.34A5.26,5.26,0,0,0,12.33,6h0.91v11.5Z"/><path class="cls-1" d="M16.17,17.74L19.49,5.9h1.13L17.3,17.74H16.17Z"/><text class="cls-8" transform="translate(21.82 17.55)">12</text></svg>