<svg id="Lag_1" data-name="Lag 1" xmlns="http://www.w3.org/2000/svg" viewBox="0 0 42 42"><defs><style>.cls-1{fill:#f7f7f7;}.cls-2{fill:#44413f;}</style></defs><title>DW</title><rect class="cls-1" width="42" height="42"/><path class="cls-2" d="M15.93,23.4a1.15,1.15,0,0,0,1-.61A1.86,1.86,0,0,0,17,22a1.72,1.72,0,0,0-.77-1.57,4.08,4.08,0,0,0-2.19-.49,2.78,2.78,0,0,0-2.34.89,3,3,0,0,0-.5,1.47h-2a3.64,3.64,0,0,1,1.5-3.24,6.15,6.15,0,0,1,3.35-.91,6.82,6.82,0,0,1,3.59.84,2.86,2.86,0,0,1,1.37,2.63v7.23a0.93,0.93,0,0,0,.13.53,0.65,0.65,0,0,0,.57.2l0.32,0,0.38-.05v1.56a5.87,5.87,0,0,1-.75.18,5.48,5.48,0,0,1-.7,0,1.73,1.73,0,0,1-1.58-.77,3,3,0,0,1-.36-1.16,5.37,5.37,0,0,1-1.85,1.46,5.73,5.73,0,0,1-2.66.62,4,4,0,0,1-2.85-1.06,3.51,3.51,0,0,1-1.11-2.65A3.41,3.41,0,0,1,9.7,25a5.17,5.17,0,0,1,2.86-1.18Zm-4.44,5.7a2.48,2.48,0,0,0,1.58.53,4.81,4.81,0,0,0,2.16-.52A2.9,2.9,0,0,0,17,26.32v-1.7A3.66,3.66,0,0,1,16,25a8.46,8.46,0,0,1-1.19.23l-1.27.16a4.92,4.92,0,0,0-1.72.48,1.87,1.87,0,0,0-1,1.75A1.73,1.73,0,0,0,11.48,29.1Z"/><path class="cls-2" d="M22.37,13.73h2.05V20a4.62,4.62,0,0,1,3.75-1.85A4.92,4.92,0,0,1,32,19.73a6.85,6.85,0,0,1,1.46,4.75A8.13,8.13,0,0,1,32,29.43a4.7,4.7,0,0,1-4,2,4.12,4.12,0,0,1-2.42-.69,5.82,5.82,0,0,1-1.26-1.31V31H22.37V13.73Zm8.07,14.45a6.68,6.68,0,0,0,.85-3.59,5.87,5.87,0,0,0-.85-3.28A2.81,2.81,0,0,0,27.93,20a3.51,3.51,0,0,0-2.53,1.07,4.78,4.78,0,0,0-1.09,3.52,7.75,7.75,0,0,0,.45,2.87,3.09,3.09,0,0,0,3.12,2.07A2.83,2.83,0,0,0,30.44,28.18Z"/></svg>