<svg id="Lag_1" data-name="Lag 1" xmlns="http://www.w3.org/2000/svg" viewBox="0 0 42 42"><defs><style>.cls-1{fill:#f7f7f7;}.cls-2{fill:#44413f;}</style></defs><title>DW</title><rect class="cls-1" width="42" height="42"/><path class="cls-2" d="M11.84,13.79h2.63L20.72,31H18.17l-1.8-5.16H9.62L7.75,31H5.36Zm3.87,10.16-2.65-7.61-2.75,7.61h5.4Z"/><path class="cls-2" d="M22.77,13.79h7.44q3,0,4.33,1.8a4.15,4.15,0,0,1,.75,2.46,3.87,3.87,0,0,1-.93,2.67,4.52,4.52,0,0,1-1.38,1,5.85,5.85,0,0,1,2,1.14A4.12,4.12,0,0,1,36.13,26a4.78,4.78,0,0,1-1,3q-1.57,2-5,2H22.77V13.79Zm6.57,7.28a5.33,5.33,0,0,0,2.32-.41A2.36,2.36,0,0,0,33,18.33a2.23,2.23,0,0,0-1.39-2.27,6.29,6.29,0,0,0-2.32-.33h-4.2v5.33h4.29ZM30.13,29a3.6,3.6,0,0,0,3.09-1.24,3.11,3.11,0,0,0,.58-1.9,2.53,2.53,0,0,0-1.69-2.55,6.46,6.46,0,0,0-2.38-.36H25.05V29h5.08Z"/></svg>