<svg id="Lag_1" data-name="Lag 1" xmlns="http://www.w3.org/2000/svg" viewBox="0 0 84.17 42"><defs><style>.cls-1{fill:#f6f6f6;}.cls-2{fill:#d5d3d2;}.cls-3{fill:#0089e0;}.cls-4{font-size:12px;fill:#fff;font-family:Myriad Pro;}</style></defs><title>DW</title><rect class="cls-1" x="-0.09" width="84.17" height="42"/><path class="cls-2" d="M19,33.24A2.48,2.48,0,0,1,14.77,35a2.48,2.48,0,1,1,3.51-3.51A2.4,2.4,0,0,1,19,33.24Zm17.49,0a2.53,2.53,0,1,1-.74-1.76A2.4,2.4,0,0,1,36.51,33.24ZM39,12V22a1.21,1.21,0,0,1-.32.83,1.23,1.23,0,0,1-.79.42L17.52,25.63A11.78,11.78,0,0,1,17.77,27a3.77,3.77,0,0,1-.47,1.25h18a1.25,1.25,0,0,1,0,2.5h-20A1.27,1.27,0,0,1,14,29.5a1.86,1.86,0,0,1,.16-0.61,7.44,7.44,0,0,1,.31-0.7l0.42-.78q0.26-.48.3-0.58L11.76,10.76h-4A1.24,1.24,0,0,1,6.9,8.63a1.2,1.2,0,0,1,.88-0.37h5a1.19,1.19,0,0,1,.56.13,1.14,1.14,0,0,1,.38.3,1.9,1.9,0,0,1,.25.48,3,3,0,0,1,.16.51l0.11,0.58q0.07,0.37.09,0.51H37.76A1.27,1.27,0,0,1,39,12Z"/><rect class="cls-3" x="25.94" y="3.8" width="30.46" height="15.71" rx="7.85" ry="7.85"/><text class="cls-4" transform="translate(35.02 16.09)">10</text></svg>