<svg id="Lag_1" data-name="Lag 1" xmlns="http://www.w3.org/2000/svg" viewBox="0 0 42 42"><defs><style>.cls-1{fill:#f7f7f7;}.cls-2{fill:#44413f;}</style></defs><title>DW</title><rect class="cls-1" width="42" height="42"/><path class="cls-2" d="M13.17,13.79h2.63L22.05,31H19.5l-1.8-5.16H10.95L9.08,31H6.69ZM17,23.95l-2.65-7.61-2.75,7.61H17Z"/><path class="cls-2" d="M23.7,13.73h2.05V20a4.62,4.62,0,0,1,3.75-1.85,4.92,4.92,0,0,1,3.82,1.61,6.85,6.85,0,0,1,1.46,4.75,8.13,8.13,0,0,1-1.45,4.95,4.7,4.7,0,0,1-4,2,4.12,4.12,0,0,1-2.42-.69,5.82,5.82,0,0,1-1.26-1.31V31H23.7V13.73Zm8.07,14.45a6.68,6.68,0,0,0,.85-3.59,5.87,5.87,0,0,0-.85-3.28A2.81,2.81,0,0,0,29.26,20a3.51,3.51,0,0,0-2.53,1.07,4.78,4.78,0,0,0-1.09,3.52,7.75,7.75,0,0,0,.45,2.87,3.09,3.09,0,0,0,3.12,2.07A2.83,2.83,0,0,0,31.77,28.18Z"/></svg>