<svg id="Lag_6" data-name="Lag 6" xmlns="http://www.w3.org/2000/svg" viewBox="0 0 198 114"><defs><style>.cls-1{fill:#f7f7f7;}.cls-2{fill:#b9b9b8;}.cls-3{fill:#3189dd;}.cls-4{fill:#d4d3d2;}</style></defs><title>DW</title><rect class="cls-1" x="-0.42" width="198.4" height="114.05"/><rect class="cls-2" y="-0.95" width="198" height="15"/><rect class="cls-3" x="48" y="14" width="32" height="32"/><rect class="cls-1" x="52" y="21.5" width="24" height="2"/><rect class="cls-1" x="52" y="28.5" width="24" height="2"/><rect class="cls-1" x="52" y="35.5" width="24" height="2"/><rect class="cls-3" x="52" y="6" width="24" height="2"/><circle class="cls-1" cx="149" cy="7" r="5"/><circle class="cls-1" cx="163" cy="7" r="5"/><circle class="cls-1" cx="178" cy="7" r="5"/><rect class="cls-1" x="10" y="2" width="35" height="9"/><circle class="cls-1" cx="134" cy="7" r="5"/><rect class="cls-4" x="30.79" y="51" width="40" height="22"/><rect class="cls-4" x="30.79" y="76" width="40" height="5"/><rect class="cls-4" x="30.79" y="84.03" width="35.96" height="2.97"/><rect class="cls-4" x="30.79" y="89.03" width="23.94" height="2.97"/><rect class="cls-4" x="30.79" y="94.03" width="30.95" height="2.97"/><rect class="cls-4" x="76.79" y="76" width="40" height="5"/><rect class="cls-4" x="76.79" y="84.03" width="35.96" height="2.97"/><rect class="cls-4" x="76.79" y="89.03" width="23.94" height="2.97"/><rect class="cls-4" x="76.79" y="94.03" width="30.95" height="2.97"/><rect class="cls-4" x="122.79" y="76" width="40" height="5"/><rect class="cls-4" x="122.79" y="84.03" width="35.96" height="2.97"/><rect class="cls-4" x="122.79" y="89.03" width="23.94" height="2.97"/><rect class="cls-4" x="122.79" y="94.03" width="30.95" height="2.97"/><rect class="cls-4" x="76.79" y="51" width="40" height="22"/><rect class="cls-4" x="122.79" y="51" width="40" height="22"/></svg>