<svg id="Lag_5" data-name="Lag 5" xmlns="http://www.w3.org/2000/svg" viewBox="0 0 199.18 114"><defs><style>.cls-1{fill:#f7f7f7;}.cls-2{fill:#eeedee;}.cls-3{fill:#b9b9b8;}.cls-4{fill:#fff;}.cls-5{fill:#d4d3d2;}.cls-6{fill:none;stroke:#3189dd;stroke-miterlimit:10;}.cls-7{fill:#3189dd;}</style></defs><title>DW</title><rect class="cls-1" x="-0.82" width="198.4" height="114.05"/><rect class="cls-2" x="151.33" width="14" height="1.99"/><path class="cls-3" d="M38.48,17h119.8a5,5,0,0,1,5,5V90.29A2.71,2.71,0,0,1,160.54,93H36.22a2.71,2.71,0,0,1-2.71-2.71V22A5,5,0,0,1,38.48,17Z"/><rect class="cls-3" x="19.39" y="95" width="158" height="10" rx="1.44" ry="1.44"/><rect class="cls-4" x="37.39" y="24" width="121.97" height="65"/><circle class="cls-1" cx="98.79" cy="20.82" r="2.29"/><path class="cls-5" d="M78.92,95h38.16a0,0,0,0,1,0,0v1.05a2,2,0,0,1-2,2H80.92a2,2,0,0,1-2-2V95A0,0,0,0,1,78.92,95Z"/><rect class="cls-4" x="37.39" y="24" width="121.97" height="65"/><rect class="cls-4" x="56.36" y="24" width="83.03" height="65"/><rect class="cls-5" x="76.18" y="29" width="53" height="12.63" rx="2.34" ry="2.34"/><rect class="cls-5" x="76.18" y="47" width="53" height="12.63" rx="2.34" ry="2.34"/><rect class="cls-5" x="76.18" y="64" width="53" height="12.63" rx="2.34" ry="2.34"/><rect class="cls-5" x="76.18" y="82" width="53" height="7" rx="2.34" ry="2.34"/><rect class="cls-6" x="58.18" y="29" width="13" height="13"/><rect class="cls-6" x="58.18" y="46" width="13" height="13"/><rect class="cls-6" x="58.18" y="64" width="13" height="13"/><rect class="cls-6" x="58.18" y="83" width="13" height="6.5"/><rect class="cls-7" x="61.18" y="52" width="7" height="1"/><rect class="cls-7" x="61.18" y="49" width="7" height="1"/><rect class="cls-7" x="61.18" y="55" width="7" height="1"/><rect class="cls-7" x="61.18" y="35" width="7" height="1"/><rect class="cls-7" x="61.18" y="32" width="7" height="1"/><rect class="cls-7" x="61.18" y="38" width="7" height="1"/><rect class="cls-7" x="61.18" y="70" width="7" height="1"/><rect class="cls-7" x="61.18" y="67" width="7" height="1"/><rect class="cls-7" x="61.18" y="73" width="7" height="1"/><rect class="cls-7" x="61.18" y="86" width="7" height="1"/></svg>