<svg id="Lag_1" data-name="Lag 1" xmlns="http://www.w3.org/2000/svg" viewBox="0 0 185 115"><defs><style>.cls-1{fill:#f6f6f6;}.cls-2{fill:#d5d3d2;}.cls-3{fill:#0089e0;}.cls-4,.cls-5{fill:none;stroke:#fff;stroke-miterlimit:10;}.cls-5{stroke-dasharray:6.01 4;}.cls-6{fill:#fff;}</style></defs><title>DW</title><rect class="cls-1" width="185" height="115"/><rect class="cls-2" x="8.38" y="10.18" width="168.23" height="94.63"/><rect class="cls-3" x="57.47" y="22.47" width="70.07" height="70.07"/><polyline class="cls-4" points="127.53 89.53 127.53 92.53 124.53 92.53"/><line class="cls-5" x1="120.53" y1="92.53" x2="62.47" y2="92.53"/><polyline class="cls-4" points="60.47 92.53 57.47 92.53 57.47 89.53"/><line class="cls-5" x1="57.47" y1="85.53" x2="57.47" y2="27.47"/><polyline class="cls-4" points="57.47 25.47 57.47 22.47 60.47 22.47"/><line class="cls-5" x1="64.47" y1="22.47" x2="122.53" y2="22.47"/><polyline class="cls-4" points="124.53 22.47 127.53 22.47 127.53 25.47"/><line class="cls-5" x1="127.53" y1="29.47" x2="127.53" y2="87.53"/><rect class="cls-3" x="47.68" y="63.14" width="20.11" height="20.11" rx="10.06" ry="10.06" transform="translate(115.48 146.4) rotate(180)"/><circle class="cls-6" cx="57.85" cy="72.64" r="0.29" transform="translate(-4.72 4.02) rotate(-3.83)"/><path class="cls-2" d="M57,60.86A12.07,12.07,0,0,0,44.93,72.93h0A12.07,12.07,0,0,0,57,85h0.27V60.87H57Z"/><path class="cls-6" d="M52.5,64.56l5.24,6.38-1.26,1.4c-0.84-1.27-2.12-3.22-3.6-5.42a2.86,2.86,0,0,1-.38-2.36h0Z"/><path class="cls-6" d="M63.28,65.38l-8,9.12A2,2,0,0,0,53.82,74a2.9,2.9,0,0,0-2,1,2.5,2.5,0,0,0-.07,3.5,2,2,0,0,0,1.5.48,2.91,2.91,0,0,0,2-1,3.11,3.11,0,0,0,.54-0.88h0l0-.09c0.12-.34.25-0.64,0.37-0.92,0,0,5.72-7,6.48-8.07a3.23,3.23,0,0,0,.61-1.91V65.38ZM54.34,77.21a1.72,1.72,0,0,1-1.13.61,0.85,0.85,0,0,1-.63-0.18,1.33,1.33,0,0,1,.18-1.79,1.7,1.7,0,0,1,1.13-.6,0.86,0.86,0,0,1,.63.18A1.33,1.33,0,0,1,54.34,77.21Z"/><path class="cls-6" d="M58.3,74.23a7.34,7.34,0,0,1,1.39,2.11l0,0.08h0a3.16,3.16,0,0,0,.52.9,2.91,2.91,0,0,0,1.93,1.07A2,2,0,0,0,63.68,78a2.5,2.5,0,0,0,0-3.5,2.91,2.91,0,0,0-1.93-1.07,2,2,0,0,0-1.51.43l-0.83-.91ZM61,74.75a0.85,0.85,0,0,1,.63-0.17,1.7,1.7,0,0,1,1.11.64,1.33,1.33,0,0,1,.13,1.8,0.85,0.85,0,0,1-.63.17,1.72,1.72,0,0,1-1.11-.64A1.33,1.33,0,0,1,61,74.75Z"/></svg>