<svg id="Lag_1" data-name="Lag 1" xmlns="http://www.w3.org/2000/svg" viewBox="0 0 185 115"><defs><style>.cls-1{fill:#f6f6f6;}.cls-2{fill:#d5d3d2;}.cls-3{fill:#0089e0;}.cls-4,.cls-5{fill:none;stroke:#fff;stroke-miterlimit:10;}.cls-5{stroke-dasharray:6.01 4;}.cls-6{fill:#fff;}</style></defs><title>DW</title><rect class="cls-1" width="185" height="115"/><rect class="cls-2" x="8.38" y="10.18" width="168.23" height="94.63"/><rect class="cls-3" x="105.55" y="33.75" width="70.07" height="70.07"/><polyline class="cls-4" points="175.62 100.81 175.62 103.81 172.62 103.81"/><line class="cls-5" x1="168.61" y1="103.82" x2="110.55" y2="103.82"/><polyline class="cls-4" points="108.55 103.81 105.55 103.81 105.55 100.81"/><line class="cls-5" x1="105.55" y1="96.81" x2="105.55" y2="38.75"/><polyline class="cls-4" points="105.55 36.75 105.55 33.75 108.55 33.75"/><line class="cls-5" x1="112.55" y1="33.75" x2="170.61" y2="33.75"/><polyline class="cls-4" points="172.62 33.75 175.62 33.75 175.62 36.75"/><line class="cls-5" x1="175.62" y1="40.75" x2="175.62" y2="98.81"/><rect class="cls-3" x="95.54" y="45.27" width="20.11" height="20.11" rx="10.06" ry="10.06" transform="translate(211.19 110.66) rotate(-180)"/><circle class="cls-6" cx="106.08" cy="55.31" r="0.29" transform="translate(43.81 157.47) rotate(-86.17)"/><path class="cls-2" d="M105.52,67.1A12.07,12.07,0,0,1,93.44,55h0A12.07,12.07,0,0,1,105.52,43h0.27V67.08h-0.27Z"/><path class="cls-6" d="M100.72,63.39L106,57l-1.26-1.4c-0.84,1.27-2.12,3.22-3.6,5.42a2.86,2.86,0,0,0-.38,2.36h0Z"/><path class="cls-6" d="M111.51,61.82a3.23,3.23,0,0,0-.61-1.91c-0.75-1-6.48-8.07-6.48-8.07-0.12-.28-0.25-0.58-0.37-0.92l0-.09h0a3.11,3.11,0,0,0-.54-0.88,2.91,2.91,0,0,0-2-1,2,2,0,0,0-1.5.48,2.5,2.5,0,0,0,.07,3.5,2.9,2.9,0,0,0,2,1,2,2,0,0,0,1.49-.47l8,9.12V61.82Zm-8.76-9.28a0.86,0.86,0,0,1-.63.18,1.7,1.7,0,0,1-1.13-.6,1.33,1.33,0,0,1-.18-1.79,0.85,0.85,0,0,1,.63-0.18,1.72,1.72,0,0,1,1.13.61A1.33,1.33,0,0,1,102.75,52.54Z"/><path class="cls-6" d="M107.68,55l0.83-.91a2,2,0,0,0,1.51.43,2.91,2.91,0,0,0,1.93-1.07,2.5,2.5,0,0,0,0-3.5,2,2,0,0,0-1.52-.44,2.91,2.91,0,0,0-1.93,1.07,3.16,3.16,0,0,0-.52.9h0l0,0.08a7.34,7.34,0,0,1-1.39,2.11Zm1.72-3.65a1.72,1.72,0,0,1,1.11-.64,0.85,0.85,0,0,1,.63.17,1.33,1.33,0,0,1-.13,1.8,1.7,1.7,0,0,1-1.11.64,0.85,0.85,0,0,1-.63-0.17A1.33,1.33,0,0,1,109.4,51.4Z"/></svg>