<svg id="Lag_1" data-name="Lag 1" xmlns="http://www.w3.org/2000/svg" viewBox="0 0 185 115"><defs><style>.cls-1{fill:#f6f6f6;}.cls-2{fill:#d5d3d2;}.cls-3{fill:#0089e0;stroke:#fff;stroke-miterlimit:10;stroke-dasharray:6 4;}.cls-4{fill:#fff;}</style></defs><title>DW</title><rect class="cls-1" x="-0.66" y="0.32" width="185" height="115"/><rect class="cls-2" x="8.96" y="12.14" width="167" height="93"/><rect class="cls-3" x="42.31" y="30.82" width="98.73" height="53.68"/><polygon class="cls-4" points="26.45 58.06 26.45 59.58 33.59 57.66 26.45 55.74 26.45 57.27 14.11 57.27 14.11 58.06 26.45 58.06"/><polygon class="cls-4" points="156.97 57.27 156.97 55.74 149.82 57.66 156.97 59.58 156.97 58.06 169.3 58.06 169.3 57.27 156.97 57.27"/><polygon class="cls-4" points="92.07 96.57 93.59 96.57 91.67 89.42 89.75 96.57 91.28 96.57 91.28 97.1 91.28 100.56 92.07 100.56 92.07 97.1 92.07 96.57"/><polygon class="cls-4" points="91.28 19.75 89.75 19.75 91.67 26.9 93.59 19.75 92.07 19.75 92.07 19.23 92.07 15.77 91.28 15.77 91.28 19.23 91.28 19.75"/><polygon class="cls-4" points="154.59 91.61 155.18 90.22 147.84 89.2 153.69 93.75 154.28 92.34 165.64 97.14 165.95 96.41 154.59 91.61"/><polygon class="cls-4" points="29.07 92.22 29.66 93.61 35.5 89.07 28.17 90.08 28.76 91.48 17.39 96.28 17.7 97.01 29.07 92.22"/><polygon class="cls-4" points="155.06 23.37 154.47 21.97 148.63 26.51 155.96 25.5 155.37 24.1 166.74 19.3 166.43 18.57 155.06 23.37"/><polygon class="cls-4" points="29.55 24.23 28.95 25.63 36.29 26.64 30.44 22.1 29.85 23.5 18.49 18.7 18.18 19.43 29.55 24.23"/></svg>