<svg id="Lag_1" data-name="Lag 1" xmlns="http://www.w3.org/2000/svg" viewBox="0 0 185 115"><defs><style>.cls-1{fill:#f6f6f6;}.cls-2{fill:#d5d3d2;}.cls-3{fill:#0089e0;}.cls-4,.cls-5{fill:none;stroke:#fff;stroke-miterlimit:10;}.cls-5{stroke-dasharray:6.01 4;}.cls-6{fill:#fff;}</style></defs><title>DW</title><rect class="cls-1" width="185" height="115"/><rect class="cls-2" x="8.38" y="10.18" width="168.23" height="94.63"/><rect class="cls-3" x="9.64" y="33.82" width="70.07" height="70.07"/><polyline class="cls-4" points="79.71 100.89 79.71 103.89 76.71 103.89"/><line class="cls-5" x1="72.71" y1="103.88" x2="14.64" y2="103.88"/><polyline class="cls-4" points="12.64 103.89 9.64 103.89 9.64 100.89"/><line class="cls-5" x1="9.64" y1="96.88" x2="9.64" y2="38.82"/><polyline class="cls-4" points="9.64 36.82 9.64 33.82 12.64 33.82"/><line class="cls-5" x1="16.65" y1="33.82" x2="74.71" y2="33.82"/><polyline class="cls-4" points="76.71 33.82 79.71 33.82 79.71 36.82"/><line class="cls-5" x1="79.71" y1="40.82" x2="79.71" y2="98.88"/><rect class="cls-3" x="69.28" y="46.8" width="20.11" height="20.11" rx="10.06" ry="10.06"/><circle class="cls-6" cx="79.22" cy="57.42" r="0.29" transform="translate(-3.65 5.41) rotate(-3.83)"/><path class="cls-2" d="M80.07,69.2A12.07,12.07,0,0,0,92.14,57.13h0A12.07,12.07,0,0,0,80.07,45.06H79.79V69.19h0.27Z"/><path class="cls-6" d="M84.58,65.5l-5.24-6.38,1.26-1.4c0.84,1.27,2.12,3.22,3.6,5.42a2.86,2.86,0,0,1,.38,2.36h0Z"/><path class="cls-6" d="M73.79,64.68l8-9.12a2,2,0,0,0,1.49.47,2.9,2.9,0,0,0,2-1,2.5,2.5,0,0,0,.07-3.5,2,2,0,0,0-1.5-.48,2.91,2.91,0,0,0-2,1,3.11,3.11,0,0,0-.54.88h0l0,0.09c-0.12.34-.25,0.64-0.37,0.92,0,0-5.72,7-6.48,8.07a3.23,3.23,0,0,0-.61,1.91v0.76Zm8.94-11.83a1.72,1.72,0,0,1,1.13-.61,0.85,0.85,0,0,1,.63.18,1.33,1.33,0,0,1-.18,1.79,1.7,1.7,0,0,1-1.13.6,0.86,0.86,0,0,1-.63-0.18A1.33,1.33,0,0,1,82.73,52.85Z"/><path class="cls-6" d="M78.77,55.83a7.34,7.34,0,0,1-1.39-2.11l0-.08h0a3.16,3.16,0,0,0-.52-0.9,2.91,2.91,0,0,0-1.93-1.07,2,2,0,0,0-1.52.44,2.5,2.5,0,0,0,0,3.5,2.91,2.91,0,0,0,1.93,1.07,2,2,0,0,0,1.51-.43l0.83,0.91ZM76,55.31a0.85,0.85,0,0,1-.63.17,1.7,1.7,0,0,1-1.11-.64,1.33,1.33,0,0,1-.13-1.8,0.85,0.85,0,0,1,.63-0.17,1.72,1.72,0,0,1,1.11.64A1.33,1.33,0,0,1,76,55.31Z"/></svg>