<svg id="Lag_1" data-name="Lag 1" xmlns="http://www.w3.org/2000/svg" viewBox="0 0 185 115"><defs><style>.cls-1{fill:#f6f6f6;}.cls-2{fill:#d5d3d2;}.cls-3{fill:#0089e0;}.cls-4,.cls-5{fill:none;stroke:#fff;stroke-miterlimit:10;}.cls-5{stroke-dasharray:6.01 4;}.cls-6{fill:#fff;}</style></defs><title>DW</title><rect class="cls-1" width="185" height="115"/><rect class="cls-2" x="8.38" y="10.18" width="168.23" height="94.63"/><rect class="cls-3" x="105.16" y="10.82" width="70.07" height="70.07"/><polyline class="cls-4" points="175.23 77.88 175.23 80.88 172.23 80.88"/><line class="cls-5" x1="168.23" y1="80.88" x2="110.17" y2="80.88"/><polyline class="cls-4" points="108.16 80.88 105.16 80.88 105.16 77.88"/><line class="cls-5" x1="105.16" y1="73.88" x2="105.16" y2="15.82"/><polyline class="cls-4" points="105.16 13.81 105.16 10.81 108.16 10.81"/><line class="cls-5" x1="112.17" y1="10.82" x2="170.23" y2="10.82"/><polyline class="cls-4" points="172.23 10.81 175.23 10.81 175.23 13.81"/><line class="cls-5" x1="175.23" y1="17.82" x2="175.23" y2="75.88"/><rect class="cls-3" x="95.48" y="47.72" width="20.11" height="20.11" rx="10.06" ry="10.06" transform="translate(211.08 115.54) rotate(-180)"/><circle class="cls-6" cx="105.65" cy="57.21" r="0.29" transform="translate(-3.58 7.18) rotate(-3.83)"/><path class="cls-2" d="M104.81,45.43A12.07,12.07,0,0,0,92.73,57.5h0a12.07,12.07,0,0,0,12.07,12.07h0.27V45.44h-0.27Z"/><path class="cls-6" d="M100.3,49.13l5.24,6.38-1.26,1.4c-0.84-1.27-2.12-3.22-3.6-5.42a2.86,2.86,0,0,1-.38-2.36h0Z"/><path class="cls-6" d="M111.08,49.95l-8,9.12a2,2,0,0,0-1.49-.47,2.9,2.9,0,0,0-2,1,2.5,2.5,0,0,0-.07,3.5,2,2,0,0,0,1.5.48,2.91,2.91,0,0,0,2-1,3.11,3.11,0,0,0,.54-0.88h0l0-.09c0.12-.34.25-0.64,0.37-0.92,0,0,5.72-7,6.48-8.07a3.23,3.23,0,0,0,.61-1.91V49.95Zm-8.94,11.83a1.72,1.72,0,0,1-1.13.61,0.85,0.85,0,0,1-.63-0.18,1.33,1.33,0,0,1,.18-1.79,1.7,1.7,0,0,1,1.13-.6,0.86,0.86,0,0,1,.63.18A1.33,1.33,0,0,1,102.14,61.78Z"/><path class="cls-6" d="M106.1,58.8a7.34,7.34,0,0,1,1.39,2.11l0,0.08h0a3.16,3.16,0,0,0,.52.9A2.91,2.91,0,0,0,110,63a2,2,0,0,0,1.52-.44,2.5,2.5,0,0,0,0-3.5A2.91,2.91,0,0,0,109.59,58a2,2,0,0,0-1.51.43l-0.83-.91Zm2.74,0.53a0.85,0.85,0,0,1,.63-0.17,1.7,1.7,0,0,1,1.11.64,1.33,1.33,0,0,1,.13,1.8,0.85,0.85,0,0,1-.63.17,1.72,1.72,0,0,1-1.11-.64A1.33,1.33,0,0,1,108.84,59.33Z"/></svg>