<svg id="Lag_6" data-name="Lag 6" xmlns="http://www.w3.org/2000/svg" viewBox="0 0 198.4 114.05"><defs><style>.cls-1{fill:#f7f7f7;}.cls-2{fill:#3189dd;}.cls-3{fill:#d4d3d2;}.cls-4{fill:#fff;}</style></defs><title>DW</title><rect class="cls-1" x="-0.42" width="198.4" height="114.05"/><rect class="cls-1" width="198.4" height="114.05"/><rect class="cls-1" x="0.42" width="198" height="114"/><rect class="cls-2" x="0.42" y="0.05" width="198" height="27.95"/><rect class="cls-3" x="0.42" y="28.5" width="197.99" height="50"/><rect class="cls-3" x="32.21" y="89" width="40" height="22"/><rect class="cls-3" x="78.21" y="89" width="40" height="22"/><rect class="cls-3" x="124.21" y="89" width="40" height="22"/><circle class="cls-1" cx="126.42" cy="19" r="4"/><circle class="cls-1" cx="139.42" cy="19" r="4"/><circle class="cls-1" cx="152.42" cy="19" r="4"/><rect class="cls-1" x="82.42" y="3" width="35" height="9"/><circle class="cls-1" cx="113.42" cy="19" r="4"/><rect class="cls-4" x="43.92" y="18.45" width="12" height="1.6"/><rect class="cls-4" x="59.92" y="18.45" width="12" height="1.6"/><rect class="cls-4" x="92.92" y="18.45" width="12" height="1.6"/><rect class="cls-4" x="75.92" y="18.45" width="12" height="1.6"/></svg>