<svg id="Lag_1" data-name="Lag 1" xmlns="http://www.w3.org/2000/svg" viewBox="0 0 185 115"><defs><style>.cls-1{fill:#f6f6f6;}.cls-2{fill:#b9b9b8;}.cls-3{fill:#fff;}.cls-4{fill:#d5d3d2;}.cls-5{fill:#0089e0;}</style></defs><title>DW</title><rect class="cls-1" x="0.17" width="185" height="114.05"/><path class="cls-2" d="M32.48,17h119.8a5,5,0,0,1,5,5V90.29A2.71,2.71,0,0,1,154.54,93H30.22a2.71,2.71,0,0,1-2.71-2.71V22A5,5,0,0,1,32.48,17Z"/><rect class="cls-2" x="13.39" y="95" width="158" height="10" rx="1.44" ry="1.44"/><rect class="cls-3" x="31.39" y="24" width="121.97" height="65"/><circle class="cls-1" cx="92.79" cy="20.82" r="2.29"/><path class="cls-4" d="M72.91,95h38.16a0,0,0,0,1,0,0v1.05a2,2,0,0,1-2,2H74.91a2,2,0,0,1-2-2V95A0,0,0,0,1,72.91,95Z"/><rect class="cls-3" x="31.39" y="24" width="121.97" height="65"/><rect class="cls-3" x="50.36" y="24" width="83.03" height="65"/><rect class="cls-4" x="58.68" y="75.32" width="70" height="11.93" rx="2.34" ry="2.34"/><rect class="cls-4" x="58.68" y="59.32" width="70" height="11.93" rx="2.34" ry="2.34"/><rect class="cls-4" x="58.68" y="32.07" width="70" height="22.93"/><rect class="cls-4" x="31.39" y="24" width="121.97" height="6.53"/><rect class="cls-5" x="116.83" y="29" width="30" height="30"/></svg>