<svg id="Lag_5" data-name="Lag 5" xmlns="http://www.w3.org/2000/svg" viewBox="0 0 198.4 114.05"><defs><style>.cls-1{fill:#b9b9b8;}.cls-2,.cls-5{fill:#f7f7f7;}.cls-3,.cls-7,.cls-8{fill:#3189dd;}.cls-4{fill:#d4d3d2;}.cls-5{stroke:#d4d3d2;}.cls-5,.cls-7,.cls-8{stroke-miterlimit:10;}.cls-6{fill:#fff;}.cls-7{stroke:#3189dd;}.cls-7,.cls-8{stroke-width:0.71px;}.cls-8{stroke:#585757;}.cls-9{fill:#e4e3e2;}</style></defs><title>DW</title><path class="cls-1" d="M27.51,7H171.45a5,5,0,0,1,5,5V114.29a2.71,2.71,0,0,1-2.71,2.71H25.24a2.71,2.71,0,0,1-2.71-2.71V12A5,5,0,0,1,27.51,7Z"/><rect class="cls-2" x="31.42" y="17" width="135.99" height="76.65"/><rect class="cls-3" x="31.7" y="17.03" width="135.72" height="10.08"/><rect class="cls-4" x="47.7" y="27.42" width="119.71" height="88.58"/><rect class="cls-2" x="31.7" y="27" width="114.72" height="90"/><rect class="cls-5" x="110.92" y="28" width="35.5" height="90"/><circle class="cls-2" cx="159.57" cy="21.92" r="2.81"/><rect class="cls-2" x="89.13" y="19.11" width="24.61" height="6.33"/><rect class="cls-6" x="37.55" y="21.54" width="8.44" height="1.13"/><rect class="cls-6" x="37.55" y="24.35" width="8.44" height="1.13"/><rect class="cls-6" x="37.55" y="18.72" width="8.44" height="1.13"/><line class="cls-7" x1="101.07" y1="34.2" x2="103.56" y2="36.71"/><line class="cls-7" x1="104.06" y1="36.21" x2="101.05" y2="39.2"/><line class="cls-8" x1="100.96" y1="75.2" x2="103.45" y2="77.71"/><line class="cls-8" x1="103.95" y1="77.21" x2="100.95" y2="80.2"/><line class="cls-8" x1="100.91" y1="94.95" x2="103.4" y2="97.46"/><line class="cls-8" x1="103.9" y1="96.96" x2="100.9" y2="99.95"/><line class="cls-8" x1="101.01" y1="54.2" x2="103.51" y2="56.71"/><line class="cls-8" x1="104.01" y1="56.21" x2="101" y2="59.2"/><rect class="cls-9" x="38.42" y="35" width="56" height="5"/><rect class="cls-9" x="38.42" y="55" width="56" height="5"/><rect class="cls-9" x="38.42" y="75" width="53.55" height="5"/><rect class="cls-9" x="38.77" y="95" width="53.55" height="5"/><rect class="cls-9" x="118.42" y="34" width="28" height="5"/><rect class="cls-9" x="118.42" y="54" width="28" height="5"/><rect class="cls-9" x="118.42" y="74" width="26.78" height="5"/><rect class="cls-9" x="118.59" y="94" width="26.78" height="5"/></svg>