<svg id="Lag_5" data-name="Lag 5" xmlns="http://www.w3.org/2000/svg" viewBox="0 0 114.81 66"><defs><style>.cls-1{fill:#b9b9b8;}.cls-2{fill:#f7f7f7;}.cls-3{fill:#3189dd;}.cls-4{fill:#d4d3d2;}.cls-5{fill:#fff;}</style></defs><title>DW</title><path class="cls-1" d="M12.43,5h89.41a5,5,0,0,1,5,5V63.27A2.71,2.71,0,0,1,104.1,66H10.17a2.71,2.71,0,0,1-2.71-2.71V9.94A5,5,0,0,1,12.43,5Z"/><rect class="cls-2" x="13.2" y="11.43" width="87.8" height="49.49"/><rect class="cls-2" x="13.38" y="11.43" width="87.62" height="54.54"/><rect class="cls-3" x="13.38" y="11.45" width="87.62" height="6.51"/><rect class="cls-4" x="13.38" y="18.15" width="87.62" height="24.74"/><rect class="cls-4" x="22.41" y="50.57" width="32.16" height="15.4"/><rect class="cls-4" x="59.4" y="50.57" width="32.16" height="15.4"/><circle class="cls-2" cx="95.93" cy="14.61" r="1.82"/><circle class="cls-2" cx="28.05" cy="14.61" r="1.82"/><rect class="cls-2" x="50.46" y="12.79" width="15.89" height="4.09"/><rect class="cls-5" x="17.16" y="16.17" width="5.45" height="0.73"/><rect class="cls-5" x="17.16" y="14.17" width="5.45" height="0.73"/><rect class="cls-5" x="17.16" y="12.17" width="5.45" height="0.73"/></svg>