<svg id="Lag_5" data-name="Lag 5" xmlns="http://www.w3.org/2000/svg" viewBox="0 0 198.4 114.05"><defs><style>.cls-1{fill:#b9b9b8;}.cls-2,.cls-8{fill:#3189dd;}.cls-3{fill:#f7f7f7;}.cls-4{fill:#d4d3d2;}.cls-5{fill:#fff;}.cls-6{fill:#e4e3e2;}.cls-7,.cls-8{font-size:14px;font-family:Helvetica;}.cls-7{fill:#6e6e6e;}.cls-8{stroke:#3189dd;stroke-miterlimit:10;}</style></defs><title>DW</title><path class="cls-1" d="M27.51,7H171.45a5,5,0,0,1,5,5V114.29a2.71,2.71,0,0,1-2.71,2.71H25.24a2.71,2.71,0,0,1-2.71-2.71V12A5,5,0,0,1,27.51,7Z"/><rect class="cls-2" x="73.42" y="34" width="10" height="26"/><rect class="cls-3" x="31.42" y="17" width="135.99" height="76.65"/><rect class="cls-2" x="31.7" y="17.03" width="135.72" height="10.08"/><rect class="cls-4" x="47.7" y="27.42" width="119.71" height="88.58"/><rect class="cls-3" x="31.7" y="27" width="114.72" height="90"/><circle class="cls-3" cx="159.57" cy="21.92" r="2.81"/><rect class="cls-3" x="89.13" y="19.11" width="24.61" height="6.33"/><rect class="cls-5" x="37.55" y="21.54" width="8.44" height="1.13"/><rect class="cls-5" x="37.55" y="24.35" width="8.44" height="1.13"/><rect class="cls-5" x="37.55" y="18.72" width="8.44" height="1.13"/><rect class="cls-6" x="37.42" y="34" width="89" height="5"/><rect class="cls-6" x="37.42" y="54" width="89" height="5"/><rect class="cls-6" x="47.92" y="74" width="75" height="5"/><rect class="cls-6" x="48.42" y="94" width="75" height="5"/><text class="cls-7" transform="translate(133 40.05)">+</text><text class="cls-8" transform="translate(133 55.05)">_</text></svg>