<svg id="Lag_5" data-name="Lag 5" xmlns="http://www.w3.org/2000/svg" viewBox="0 0 114.81 66"><defs><style>.cls-1{fill:#b9b9b8;}.cls-2{fill:#f7f7f7;}.cls-3{fill:#3189dd;}.cls-4{fill:#d4d3d2;}.cls-5{fill:#fff;}</style></defs><title>DW</title><path class="cls-1" d="M10.59,5.09h92.06a5,5,0,0,1,5,5V63.27A2.71,2.71,0,0,1,104.91,66H8.33a2.71,2.71,0,0,1-2.71-2.71V10.06A5,5,0,0,1,10.59,5.09Z"/><rect class="cls-2" x="11.5" y="11.71" width="90.14" height="50.81"/><rect class="cls-2" x="11.69" y="11.71" width="89.96" height="54.26"/><rect class="cls-3" x="11.69" y="11.74" width="89.96" height="6.68"/><rect class="cls-4" x="11.7" y="18.62" width="89.96" height="25.4"/><rect class="cls-4" x="20.97" y="51.9" width="33.02" height="14.07"/><rect class="cls-4" x="58.94" y="51.9" width="33.02" height="14.07"/><circle class="cls-2" cx="87.17" cy="14.98" r="1.86"/><circle class="cls-2" cx="80.45" cy="14.98" r="1.86"/><rect class="cls-2" x="15.3" y="13.11" width="16.32" height="4.2"/><rect class="cls-5" x="92.16" y="16.17" width="5.45" height="0.73"/><rect class="cls-5" x="92.16" y="14.17" width="5.45" height="0.73"/><rect class="cls-5" x="92.16" y="12.17" width="5.45" height="0.73"/></svg>