<svg id="Lag_5" data-name="Lag 5" xmlns="http://www.w3.org/2000/svg" viewBox="0 0 114.81 66"><defs><style>.cls-1{fill:#b9b9b8;}.cls-2{fill:#f7f7f7;}.cls-3{fill:#3189dd;}.cls-4{fill:#d4d3d2;}.cls-5{fill:#fff;}</style></defs><title>DW</title><path class="cls-1" d="M12.59,5h89.06a5,5,0,0,1,5,5V63.27A2.71,2.71,0,0,1,103.91,66H10.33a2.71,2.71,0,0,1-2.71-2.71V9.94A5,5,0,0,1,12.59,5Z"/><rect class="cls-2" x="13.33" y="10.89" width="87.49" height="45.36"/><rect class="cls-2" x="13.51" y="10.89" width="87.31" height="55.08"/><rect class="cls-3" x="13.51" y="10.91" width="87.31" height="5.97"/><rect class="cls-4" x="13.52" y="17.06" width="87.31" height="22.68"/><rect class="cls-4" x="22.52" y="46.77" width="32.05" height="19.2"/><rect class="cls-4" x="59.37" y="46.77" width="32.05" height="19.2"/><ellipse class="cls-2" cx="86.77" cy="13.8" rx="1.81" ry="1.66"/><ellipse class="cls-2" cx="18.49" cy="13.8" rx="1.81" ry="1.66"/><rect class="cls-2" x="50.47" y="12.14" width="15.84" height="3.75"/><rect class="cls-5" x="91.16" y="15.17" width="5.45" height="0.73"/><rect class="cls-5" x="91.16" y="13.17" width="5.45" height="0.73"/><rect class="cls-5" x="91.16" y="11.17" width="5.45" height="0.73"/></svg>