<svg id="Lag_5" data-name="Lag 5" xmlns="http://www.w3.org/2000/svg" viewBox="0 0 114.81 66"><defs><style>.cls-1{fill:#b9b9b8;}.cls-2{fill:#f7f7f7;}.cls-3{fill:#3189dd;}.cls-4{fill:#d4d3d2;}.cls-5{fill:#fff;}</style></defs><title>DW</title><path class="cls-1" d="M11.71,7.07h92a5,5,0,0,1,5,5V64.27A2.71,2.71,0,0,1,106,67H9.45a2.71,2.71,0,0,1-2.71-2.71V12A5,5,0,0,1,11.71,7.07Z"/><rect class="cls-2" x="12.63" y="13.7" width="90.11" height="50.79"/><rect class="cls-2" x="12.81" y="13.7" width="89.93" height="52.27"/><rect class="cls-3" x="12.81" y="13.72" width="89.93" height="6.68"/><rect class="cls-4" x="12.82" y="20.6" width="89.93" height="25.39"/><rect class="cls-4" x="22.09" y="53.88" width="33.01" height="12.1"/><rect class="cls-4" x="60.05" y="53.88" width="33.01" height="13.1"/><circle class="cls-2" cx="97.55" cy="16.96" r="1.86"/><circle class="cls-2" cx="91.49" cy="16.96" r="1.86"/><rect class="cls-2" x="50.87" y="15.1" width="16.31" height="4.19"/><rect class="cls-5" x="18.16" y="18.17" width="5.45" height="0.73"/><rect class="cls-5" x="18.16" y="16.17" width="5.45" height="0.73"/><rect class="cls-5" x="18.16" y="14.17" width="5.45" height="0.73"/></svg>