<svg id="Lag_1" data-name="Lag 1" xmlns="http://www.w3.org/2000/svg" viewBox="0 0 198.4 114.05"><defs><style>.cls-1{fill:#f6f6f6;}.cls-2{fill:#b9b9b8;}.cls-3{fill:#fff;}.cls-4{fill:#d5d3d2;}.cls-5{fill:none;stroke:#b9b9b8;stroke-miterlimit:10;}.cls-6{fill:#0089e0;}</style></defs><title>DW</title><rect class="cls-1" width="198.4" height="114.05"/><path class="cls-2" d="M39.3,17H159.1a5,5,0,0,1,5,5V90.29A2.71,2.71,0,0,1,161.36,93H37a2.71,2.71,0,0,1-2.71-2.71V22A5,5,0,0,1,39.3,17Z"/><rect class="cls-2" x="20.21" y="95" width="158" height="10" rx="1.44" ry="1.44"/><rect class="cls-3" x="38.21" y="24" width="121.97" height="65"/><circle class="cls-1" cx="99.61" cy="20.82" r="2.29"/><path class="cls-4" d="M79.73,95h38.16a0,0,0,0,1,0,0v1.05a2,2,0,0,1-2,2H81.73a2,2,0,0,1-2-2V95A0,0,0,0,1,79.73,95Z"/><rect class="cls-3" x="38.21" y="24" width="121.97" height="65"/><rect class="cls-3" x="57.18" y="24" width="83.03" height="65"/><rect class="cls-4" x="65.5" y="75.32" width="70" height="11.93" rx="2.34" ry="2.34"/><rect class="cls-4" x="65.5" y="59.32" width="70" height="11.93" rx="2.34" ry="2.34"/><rect class="cls-5" x="66" y="49.75" width="15" height="4"/><rect class="cls-5" x="84" y="49.75" width="15" height="4"/><rect class="cls-5" x="120" y="49.75" width="15" height="4"/><rect class="cls-5" x="102" y="49.75" width="15" height="4"/><rect class="cls-4" x="65" y="24" width="70" height="20"/><rect class="cls-6" x="38.5" y="23.16" width="121.68" height="15"/></svg>