<svg id="Lag_1" data-name="Lag 1" xmlns="http://www.w3.org/2000/svg" viewBox="0 0 115 74"><defs><style>.cls-1{fill:#f6f6f6;}.cls-2{fill:#d5d3d2;}</style></defs><title>DW</title><rect class="cls-1" width="115" height="74"/><rect class="cls-2" x="10" y="10" width="31" height="7"/><rect class="cls-2" x="43" y="10" width="31" height="7"/><rect class="cls-2" x="76" y="10" width="31" height="7"/><rect class="cls-2" x="10" y="19" width="31" height="7"/><rect class="cls-2" x="43" y="19" width="31" height="7"/><rect class="cls-2" x="76" y="19" width="31" height="7"/><rect class="cls-2" x="10" y="28" width="31" height="7"/><rect class="cls-2" x="43" y="28" width="31" height="7"/><rect class="cls-2" x="76" y="28" width="31" height="7"/><rect class="cls-2" x="10" y="37" width="31" height="7"/><rect class="cls-2" x="43" y="37" width="31" height="7"/><rect class="cls-2" x="76" y="37" width="31" height="7"/><rect class="cls-2" x="10" y="46" width="31" height="7"/><rect class="cls-2" x="43" y="46" width="31" height="7"/><rect class="cls-2" x="76" y="46" width="31" height="7"/><rect class="cls-2" x="10" y="55" width="31" height="7"/><rect class="cls-2" x="43" y="55" width="31" height="7"/><rect class="cls-2" x="76" y="55" width="31" height="7"/></svg>