<svg id="Lag_5" data-name="Lag 5" xmlns="http://www.w3.org/2000/svg" viewBox="0 0 198.4 114.05"><defs><style>.cls-1{fill:#f7f7f7;}.cls-2{fill:#eeedee;}.cls-3{fill:#b9b9b8;}.cls-4{fill:#fff;}.cls-5{fill:#d4d3d2;}.cls-6{fill:#3189dd;}</style></defs><title>DW</title><rect class="cls-1" width="198.4" height="114.05"/><rect class="cls-2" x="152.15" width="14" height="1.99"/><path class="cls-3" d="M39.3,17H159.1a5,5,0,0,1,5,5V90.29A2.71,2.71,0,0,1,161.36,93H37a2.71,2.71,0,0,1-2.71-2.71V22A5,5,0,0,1,39.3,17Z"/><rect class="cls-3" x="20.21" y="95" width="158" height="10" rx="1.44" ry="1.44"/><rect class="cls-4" x="38.21" y="24" width="121.97" height="65"/><circle class="cls-1" cx="99.61" cy="20.82" r="2.29"/><path class="cls-5" d="M79.73,95h38.16a0,0,0,0,1,0,0v1.05a2,2,0,0,1-2,2H81.73a2,2,0,0,1-2-2V95A0,0,0,0,1,79.73,95Z"/><rect class="cls-4" x="38.21" y="24" width="121.97" height="65"/><rect class="cls-4" x="57.18" y="24" width="83.03" height="65"/><rect class="cls-6" x="60" y="28" width="77" height="20"/><rect class="cls-5" x="60.21" y="51" width="24" height="12.63" rx="2.34" ry="2.34"/><rect class="cls-5" x="87.21" y="51" width="24" height="12.63" rx="2.34" ry="2.34"/><rect class="cls-5" x="114.21" y="51" width="23" height="12.63" rx="2.34" ry="2.34"/><rect class="cls-5" x="60.21" y="71" width="23" height="1"/><rect class="cls-5" x="60.21" y="73" width="18" height="1"/><rect class="cls-5" x="60.21" y="75" width="20" height="1"/><rect class="cls-5" x="60.21" y="77" width="12.94" height="1"/><rect class="cls-5" x="60.21" y="66" width="24" height="3"/><rect class="cls-5" x="87.21" y="71" width="23" height="1"/><rect class="cls-5" x="87.21" y="73" width="18" height="1"/><rect class="cls-5" x="87.21" y="75" width="20" height="1"/><rect class="cls-5" x="87.21" y="77" width="12.94" height="1"/><rect class="cls-5" x="87.21" y="66" width="24" height="3"/><rect class="cls-5" x="114.21" y="71" width="23" height="1"/><rect class="cls-5" x="114.21" y="73" width="18" height="1"/><rect class="cls-5" x="114.21" y="75" width="20" height="1"/><rect class="cls-5" x="114.21" y="77" width="12.94" height="1"/><rect class="cls-5" x="114.21" y="66" width="23" height="3"/><rect class="cls-1" x="65.21" y="34.44" width="30.41" height="1.32"/><rect class="cls-1" x="65.21" y="37.08" width="23.8" height="1.32"/><rect class="cls-1" x="65.21" y="39.73" width="26.44" height="1.32"/><rect class="cls-1" x="65.21" y="42.37" width="17.1" height="1.32"/></svg>