<svg id="Lag_2" data-name="Lag 2" xmlns="http://www.w3.org/2000/svg" viewBox="0 0 115 74"><defs><style>.cls-1{fill:#f7f7f7;}.cls-2{fill:#a8a7a7;}.cls-3{fill:#b9b9b8;}.cls-4{fill:#fff;}.cls-5{fill:#d4d3d2;}.cls-6{fill:#44413f;}</style></defs><title>DW</title><rect class="cls-1" width="115" height="74"/><rect class="cls-2" x="37" y="9" width="43" height="58" rx="4.49" ry="4.49"/><rect class="cls-3" x="36" y="8" width="43" height="58" rx="4.49" ry="4.49"/><rect class="cls-4" x="40" y="12" width="35" height="47"/><circle class="cls-1" cx="57.5" cy="62.5" r="1.5"/><rect class="cls-5" x="52" y="10" width="11" height="1"/><rect class="cls-5" x="42" y="14" width="31" height="13" rx="2.41" ry="2.41"/><rect class="cls-6" y="3" width="32" height="17.45"/><path class="cls-1" d="M17.52,17.55l4.43-6L18,6.09h1.8L21.93,9a16.35,16.35,0,0,1,.92,1.41,15.58,15.58,0,0,1,.91-1.31l2.31-3h1.65l-4,5.4L28,17.55H26.15l-2.88-4.09c-0.16-.24-0.33-0.49-0.5-0.77q-0.38.63-.55,0.86l-2.87,4H17.52Z"/></svg>