<svg id="Lag_6" data-name="Lag 6" xmlns="http://www.w3.org/2000/svg" viewBox="0 0 198.4 114.05"><defs><style>.cls-1{fill:#f7f7f7;}.cls-2{fill:#3189dd;}.cls-3{fill:#d4d3d2;}.cls-4{fill:none;stroke:#3189dd;stroke-miterlimit:10;}.cls-5{fill:#fff;}</style></defs><title>DW</title><rect class="cls-1" x="-0.42" width="198.4" height="114.05"/><rect class="cls-1" width="198.4" height="114.05"/><rect class="cls-1" x="0.42" width="198" height="114"/><rect class="cls-2" x="0.42" y="18.05" width="198" height="15"/><rect class="cls-3" x="0.42" y="33.5" width="197.99" height="50"/><rect class="cls-3" x="32.21" y="94" width="40" height="19"/><rect class="cls-3" x="78.21" y="94" width="40" height="19"/><rect class="cls-3" x="124.21" y="94" width="40" height="19"/><rect class="cls-4" x="137.92" y="4.5" width="50" height="9"/><circle class="cls-5" cx="183.42" cy="26" r="4"/><circle class="cls-5" cx="170.42" cy="26" r="4"/><circle class="cls-5" cx="157.42" cy="26" r="4"/><rect class="cls-2" x="8.42" y="4.5" width="35" height="9"/><rect class="cls-5" x="10.92" y="24.45" width="12" height="1.6"/><rect class="cls-5" x="26.92" y="24.45" width="12" height="1.6"/><rect class="cls-5" x="42.92" y="24.45" width="12" height="1.6"/><rect class="cls-5" x="59.92" y="24.45" width="12" height="1.6"/></svg>