<svg id="Lag_2" data-name="Lag 2" xmlns="http://www.w3.org/2000/svg" viewBox="0 0 115 74"><defs><style>.cls-1{fill:#f7f7f7;}.cls-2{fill:#a8a7a7;}.cls-3{fill:#b9b9b8;}.cls-4{fill:#fff;}.cls-5{fill:#d4d3d2;}.cls-6{fill:#3189dd;}.cls-7{fill:#4dc1f8;}.cls-8{fill:#44413f;}</style></defs><title>DW</title><rect class="cls-1" width="115" height="74"/><rect class="cls-2" x="37" y="9" width="43" height="58" rx="4.49" ry="4.49"/><rect class="cls-3" x="36" y="8" width="43" height="58" rx="4.49" ry="4.49"/><rect class="cls-4" x="40" y="12" width="35" height="47"/><circle class="cls-1" cx="57.5" cy="62.5" r="1.5"/><rect class="cls-5" x="52" y="10" width="11" height="1"/><rect class="cls-6" x="42" y="29" width="31" height="15" rx="2.34" ry="2.34"/><rect class="cls-5" x="42" y="14" width="31" height="13" rx="2.41" ry="2.41"/><rect class="cls-7" x="42" y="46" width="31" height="1"/><rect class="cls-7" x="42" y="48" width="24" height="1"/><rect class="cls-7" x="42" y="50" width="26" height="1"/><rect class="cls-7" x="42" y="52" width="17" height="1"/><rect class="cls-8" y="3" width="32" height="17.45"/><path class="cls-1" d="M13.23,17.55H11.83v-9a7.35,7.35,0,0,1-1.33,1A9.41,9.41,0,0,1,9,10.28V8.92a8.47,8.47,0,0,0,2.06-1.34A5.26,5.26,0,0,0,12.33,6h0.91v11.5Z"/><path class="cls-1" d="M16.17,17.74L19.49,5.9h1.13L17.3,17.74H16.17Z"/><path class="cls-1" d="M26.58,17.55H25.17v-9a7.35,7.35,0,0,1-1.33,1,9.41,9.41,0,0,1-1.48.73V8.92a8.47,8.47,0,0,0,2.06-1.34A5.26,5.26,0,0,0,25.67,6h0.91v11.5Z"/></svg>