<svg id="Lag_2" data-name="Lag 2" xmlns="http://www.w3.org/2000/svg" viewBox="0 0 115 74"><defs><style>.cls-1{fill:#f7f7f7;}.cls-2{fill:#a8a7a7;}.cls-3{fill:#b9b9b8;}.cls-4{fill:#fff;}.cls-5{fill:#d4d3d2;}.cls-6{fill:#3189dd;}.cls-7{fill:#4dc1f8;}.cls-8{fill:#44413f;}</style></defs><title>DW</title><rect class="cls-1" width="115" height="74"/><rect class="cls-2" x="37" y="9" width="43" height="58" rx="4.49" ry="4.49"/><rect class="cls-3" x="36" y="8" width="43" height="58" rx="4.49" ry="4.49"/><rect class="cls-4" x="40" y="12" width="35" height="47"/><circle class="cls-1" cx="57.5" cy="62.5" r="1.5"/><rect class="cls-5" x="52" y="10" width="11" height="1"/><rect class="cls-6" x="42" y="29" width="14" height="8" rx="2.34" ry="2.34"/><rect class="cls-5" x="59" y="29" width="14" height="8" rx="2.34" ry="2.34"/><rect class="cls-5" x="42" y="14" width="31" height="13" rx="2.41" ry="2.41"/><rect class="cls-7" x="42" y="39" width="14" height="1"/><rect class="cls-7" x="42" y="41" width="11" height="1"/><rect class="cls-7" x="42" y="43" width="12" height="1"/><rect class="cls-7" x="42" y="45" width="7.88" height="1"/><rect class="cls-5" x="59" y="39" width="14" height="1"/><rect class="cls-5" x="59" y="41" width="11" height="1"/><rect class="cls-5" x="59" y="43" width="12" height="1"/><rect class="cls-5" x="59" y="45" width="7.88" height="1"/><rect class="cls-8" y="3" width="32" height="17.45"/><path class="cls-1" d="M13.23,17.55H11.83v-9a7.36,7.36,0,0,1-1.33,1A9.4,9.4,0,0,1,9,10.28V8.92a8.5,8.5,0,0,0,2.06-1.34A5.29,5.29,0,0,0,12.33,6h0.91v11.5Z"/><path class="cls-1" d="M16.17,17.74L19.49,5.9h1.13L17.3,17.74H16.17Z"/><path class="cls-1" d="M28.67,16.19v1.35H21.1a2.48,2.48,0,0,1,.16-1A5.18,5.18,0,0,1,22.19,15,14.54,14.54,0,0,1,24,13.31a15.6,15.6,0,0,0,2.52-2.43,2.9,2.9,0,0,0,.66-1.69,1.87,1.87,0,0,0-.6-1.41,2.15,2.15,0,0,0-1.56-.57,2.2,2.2,0,0,0-1.62.61,2.3,2.3,0,0,0-.62,1.69l-1.45-.15a3.55,3.55,0,0,1,1.12-2.46A3.81,3.81,0,0,1,25.09,6,3.62,3.62,0,0,1,27.69,7a3,3,0,0,1,1,2.26,3.44,3.44,0,0,1-.28,1.35,5.21,5.21,0,0,1-.93,1.4,22.71,22.71,0,0,1-2.17,2Q24,15.05,23.65,15.43a4.69,4.69,0,0,0-.59.76h5.62Z"/></svg>