<?xml version="1.0" encoding="utf-8"?>
<!-- Generator: Adobe Illustrator 19.2.1, SVG Export Plug-In . SVG Version: 6.00 Build 0)  -->
<svg version="1.1" id="Lag_1" xmlns="http://www.w3.org/2000/svg" xmlns:xlink="http://www.w3.org/1999/xlink" x="0px" y="0px"
	 viewBox="0 0 198 36.1" style="enable-background:new 0 0 198 36.1;" xml:space="preserve">
<style type="text/css">
	.st0{fill:#51544B;}
	.st1{fill:#1584C6;}
</style>
<g>
	<g>
		<path class="st0" d="M52.3,9.9V6.3c0-0.3,0.1-0.5,0.5-0.6l2.6-0.5h0.1c0.2,0,0.4,0.2,0.4,0.4v17.4c0,0.8-0.1,1.7-1.6,2.1
			c-1.2,0.3-2.7,0.6-4.5,0.6c-5.3,0-6.9-1.9-6.9-7.3c0-4.8,1.2-7.5,6-7.5c1.6,0,2.8,0.3,3.4,0.4L52.3,9.9z M52.3,13.8
			c0,0-1.3-0.3-2.6-0.3c-2.3,0-3.2,0.5-3.2,4.8c0,4.5,1,5,3.3,5c1.3,0,2.5-0.3,2.5-0.3V13.8z"/>
		<path class="st0" d="M63.5,30.8c-0.2,0-0.4-0.2-0.4-0.5l1.4-4.8h-1.7c-0.3,0-0.4-0.2-0.5-0.4L58.3,12c0-0.1,0-0.1,0-0.2
			c0-0.2,0.2-0.4,0.4-0.4h2.7c0.3,0,0.5,0.1,0.5,0.4l2.9,11.4h0.7l2.6-11.3c0.1-0.3,0.3-0.5,0.6-0.5h2.7c0.3,0,0.5,0.2,0.5,0.4
			c0,0.1,0,0.1,0,0.2l-5.4,18.3c-0.1,0.3-0.3,0.5-0.6,0.5H63.5z"/>
		<path class="st0" d="M86.4,25.5h-2.8c-0.2,0-0.4-0.2-0.4-0.4v-9.5c0-1.6-0.6-2.1-2-2.1c-1.6,0-3.4,0.5-3.4,0.5v11.1
			c0,0.2-0.2,0.4-0.4,0.4h-2.7c-0.3,0-0.5-0.2-0.5-0.4V13.5c0-1,0.5-1.4,2-1.8c1.4-0.4,3.6-0.7,5.3-0.7c3.4,0,5.2,0.9,5.2,4.1v10
			C86.8,25.3,86.7,25.5,86.4,25.5"/>
		<path class="st0" d="M126.9,25.5h-2.8c-0.2,0-0.4-0.2-0.4-0.4v-9.5c0-1.6-0.7-2.1-2.1-2.1c-1.6,0-3.4,0.5-3.4,0.5v11.1
			c0,0.2-0.1,0.4-0.4,0.4h-2.7c-0.3,0-0.4-0.2-0.4-0.4v-9.5c0-1.6-0.6-2.1-2-2.1c-1.6,0-3.4,0.5-3.4,0.5v11.1c0,0.2-0.2,0.4-0.4,0.4
			H106c-0.3,0-0.5-0.2-0.5-0.4V13.5c0-1,0.5-1.4,2-1.8c1.4-0.4,3.7-0.7,5.4-0.7c1.7,0,2.9,0.4,3.6,0.9c0.8-0.3,3.3-0.9,5.5-0.9
			c3.3,0,5.2,0.9,5.2,4.1v10C127.3,25.3,127.1,25.5,126.9,25.5"/>
		<path class="st0" d="M134.2,25.5h-2.7c-0.2,0-0.4-0.2-0.4-0.4v-13c0-0.2,0.2-0.4,0.4-0.4h2.7c0.2,0,0.4,0.2,0.4,0.4v13
			C134.6,25.3,134.4,25.5,134.2,25.5 M133.9,9.6h-2.3c-0.4,0-0.6-0.2-0.6-0.6v-3c0-0.4,0.2-0.6,0.6-0.6h2.3c0.4,0,0.6,0.2,0.6,0.6v3
			C134.6,9.4,134.3,9.6,133.9,9.6"/>
		<path class="st1" d="M166.9,25.1c-0.1,0.2-0.3,0.4-0.5,0.4H163c-0.2,0-0.4-0.2-0.5-0.4l-2.6-11l-2.6,11c-0.1,0.2-0.3,0.4-0.5,0.4
			h-3.4c-0.2,0-0.4-0.2-0.5-0.4l-2.8-13.6v-0.1c0-0.2,0.1-0.3,0.3-0.3h1.8c0.2,0,0.4,0.1,0.4,0.3l2.1,12.3h0.7l2.7-11
			c0.1-0.2,0.3-0.4,0.5-0.4h2.6c0.2,0,0.4,0.2,0.5,0.4l2.7,11h0.7l2.1-12.3c0.1-0.2,0.2-0.3,0.4-0.3h1.8c0.1,0,0.2,0.2,0.2,0.3v0.1
			L166.9,25.1z"/>
		<path class="st1" d="M172.7,11.5c0-0.2,0.2-0.4,0.4-0.4h9.2c0.2,0,0.4,0.2,0.4,0.4v1.2c0,0.2-0.2,0.4-0.4,0.4H175v4h6.9
			c0.2,0,0.4,0.2,0.4,0.4v1.2c0,0.2-0.2,0.4-0.4,0.4H175v4.6h7.2c0.2,0,0.4,0.2,0.4,0.4v1.2c0,0.2-0.2,0.4-0.4,0.4h-9.2
			c-0.2,0-0.4-0.2-0.4-0.4V11.5z"/>
		<path class="st0" d="M98.7,18.7v4.5c-0.6,0.2-1.4,0.4-2.5,0.4c-1.3,0-3-0.2-3-2.3c0-1.7,1-1.9,2.1-2.1c0.2,0,0.5-0.1,0.7-0.1
			c0.5-0.1,0.8-0.1,0.8-0.6v-1.1c0-0.3-0.2-0.7-0.7-0.6l-2.4,0.4c-2.1,0.3-4.3,0.7-4.3,4.2c0,4.3,3.6,4.6,6.5,4.6
			c1.5,0,2.8-0.2,3.7-0.4c1.8-0.4,2.5-0.8,2.5-2.8v-7.4c0-1.5-0.3-2.7-1.6-3.5c-0.9-0.5-2.1-0.8-4.1-0.8c-2.7,0-5.2,0.7-5.9,0.9
			c-0.1,0.1-0.3,0.2-0.3,0.4v0.1l0.4,1.7c0,0.2,0.2,0.2,0.3,0.2c0.1,0,0.1,0,0.2,0c0.8-0.2,2.8-0.8,4.6-0.8c1,0,1.6,0.1,2,0.3
			c0.7,0.3,0.8,0.8,0.8,1.6V18.7z"/>
		<path class="st1" d="M194.9,18.3v-0.6c1.5-0.3,2.6-1,2.6-3c0-2.5-1.3-3.6-4.4-3.6h-6.6c-0.2,0-0.4,0.2-0.4,0.4v13.6
			c0,0.2,0.2,0.4,0.4,0.4h6.3c3.2,0,5.1-1.2,5.1-3.9C198,19.4,196.9,18.5,194.9,18.3 M192.9,23.6h-4.3c-0.1,0-0.1-0.1-0.1-0.1v-3.3
			c0,0,0,0,0,0c0,0,0,0,0,0v-4.1c0,0,0,0,0,0c0,0,0,0,0,0v-3c0-0.1,0.1-0.1,0.1-0.1h4.4c1.6,0,2.2,0.7,2.2,2.1c0,1.5-0.8,2-2.4,2.1
			l-2.1,0.1c-0.1,0-0.2,0.1-0.2,0.3v1.3c0,0.1,0.1,0.2,0.2,0.3l2.1,0.1c2.2,0.1,2.8,0.7,2.8,2.3C195.6,22.7,195,23.6,192.9,23.6"/>
		<path class="st0" d="M149.4,22.9c-0.1-0.2-0.2-0.3-0.4-0.3l-0.3,0c-0.6,0.2-2.1,0.6-3.4,0.6c-2.9,0-3.8-1.3-3.8-4.9
			c0-3.6,0.9-4.8,3.8-4.8c0.4,0,1.1,0.1,1.8,0.2c0.2,0,0.4-0.1,0.4-0.4l-0.3-1.7c-0.1-0.3-0.3-0.5-0.5-0.6c-0.8-0.1-1.1-0.2-2.1-0.2
			c-5.2,0-6.7,2.4-6.7,7.4c0,4.9,1.4,7.4,6.7,7.4c1.9,0,4.2-0.4,4.9-0.8c0.2-0.1,0.3-0.2,0.3-0.4c0-0.1,0-0.1,0-0.2L149.4,22.9z"/>
	</g>
	<g>
		<path class="st1" d="M13.4,13.8c2.6,2.6,0.1,9.3-2.5,11.9c-2.6,2.6-2.2-4.3-4.8-6.9c-2.6-2.6-8.8,1.7-4.6-2.5
			C4.1,13.7,10.8,11.2,13.4,13.8"/>
		<path class="st0" d="M22.2,13.4c-2.6,2.6-9.3,0.1-11.9-2.5C7.6,8.2,14.5,8.6,17.1,6c2.6-2.6-1.7-8.8,2.5-4.6
			C22.3,4.1,24.8,10.8,22.2,13.4"/>
		<path class="st1" d="M22.7,22.2c-2.6-2.6-0.1-9.3,2.5-11.9c2.6-2.6,2.2,4.3,4.8,6.9c2.6,2.6,8.8-1.7,4.6,2.5
			C32,22.4,25.3,24.8,22.7,22.2"/>
		<path class="st0" d="M13.9,22.7c2.6-2.6,9.3-0.1,11.9,2.5c2.6,2.6-4.3,2.2-6.9,4.8c-2.6,2.6,1.7,8.8-2.5,4.6
			C13.8,32,11.3,25.3,13.9,22.7"/>
	</g>
</g>
</svg>
