<?xml version="1.0" encoding="utf-8"?>
<!-- Generator: Adobe Illustrator 19.1.0, SVG Export Plug-In . SVG Version: 6.00 Build 0)  -->
<svg version="1.1" id="Lag_1" xmlns="http://www.w3.org/2000/svg" xmlns:xlink="http://www.w3.org/1999/xlink" x="0px" y="0px"
	 viewBox="-149.9 232.9 202.8 36" style="enable-background:new -149.9 232.9 202.8 36;" xml:space="preserve">
<style type="text/css">
	.st0{fill:#FFFFFF;}
</style>
<g>
	<g>
		<path class="st0" d="M-92.7,242.8v-3.6c0-0.3,0.1-0.5,0.5-0.6l2.6-0.5h0.1c0.2,0,0.4,0.2,0.4,0.4v17.4c0,0.8-0.1,1.7-1.6,2.1
			c-1.2,0.3-2.7,0.6-4.5,0.6c-5.3,0-6.9-1.9-6.9-7.3c0-4.8,1.2-7.5,6-7.5c1.6,0,2.8,0.3,3.4,0.4V242.8z M-92.7,246.7
			c0,0-1.3-0.3-2.6-0.3c-2.3,0-3.2,0.5-3.2,4.8c0,4.5,1,5,3.3,5c1.3,0,2.5-0.3,2.5-0.3V246.7z"/>
		<path class="st0" d="M-81.5,263.7c-0.2,0-0.4-0.2-0.4-0.5l1.4-4.8h-1.7c-0.3,0-0.4-0.2-0.5-0.4l-4-13.1c0-0.1,0-0.1,0-0.2
			c0-0.2,0.2-0.4,0.4-0.4h2.7c0.3,0,0.5,0.1,0.5,0.4l2.9,11.4h0.7l2.6-11.3c0.1-0.3,0.3-0.5,0.6-0.5h2.7c0.3,0,0.5,0.2,0.5,0.4
			c0,0.1,0,0.1,0,0.2l-5.4,18.3c-0.1,0.3-0.3,0.5-0.6,0.5H-81.5z"/>
		<path class="st0" d="M-58.6,258.4h-2.8c-0.2,0-0.4-0.2-0.4-0.4v-9.5c0-1.6-0.6-2.1-2-2.1c-1.6,0-3.4,0.5-3.4,0.5V258
			c0,0.2-0.2,0.4-0.4,0.4h-2.7c-0.3,0-0.5-0.2-0.5-0.4v-11.6c0-1,0.5-1.4,2-1.8c1.4-0.4,3.6-0.7,5.3-0.7c3.4,0,5.2,0.9,5.2,4.1v10
			C-58.2,258.2-58.3,258.4-58.6,258.4"/>
		<path class="st0" d="M-18.1,258.4h-2.8c-0.2,0-0.4-0.2-0.4-0.4v-9.5c0-1.6-0.7-2.1-2.1-2.1c-1.6,0-3.4,0.5-3.4,0.5V258
			c0,0.2-0.1,0.4-0.4,0.4h-2.7c-0.3,0-0.4-0.2-0.4-0.4v-9.5c0-1.6-0.6-2.1-2-2.1c-1.6,0-3.4,0.5-3.4,0.5V258c0,0.2-0.2,0.4-0.4,0.4
			H-39c-0.3,0-0.5-0.2-0.5-0.4v-11.6c0-1,0.5-1.4,2-1.8c1.4-0.4,3.7-0.7,5.4-0.7c1.7,0,2.9,0.4,3.6,0.9c0.8-0.3,3.3-0.9,5.5-0.9
			c3.3,0,5.2,0.9,5.2,4.1v10C-17.7,258.2-17.9,258.4-18.1,258.4"/>
		<path class="st0" d="M-10.8,258.4h-2.7c-0.2,0-0.4-0.2-0.4-0.4v-13c0-0.2,0.2-0.4,0.4-0.4h2.7c0.2,0,0.4,0.2,0.4,0.4v13
			C-10.4,258.2-10.6,258.4-10.8,258.4 M-11.1,242.5h-2.3c-0.4,0-0.6-0.2-0.6-0.6v-3c0-0.4,0.2-0.6,0.6-0.6h2.3
			c0.4,0,0.6,0.2,0.6,0.6v3C-10.4,242.3-10.7,242.5-11.1,242.5"/>
		<path class="st0" d="M21.9,258c-0.1,0.2-0.3,0.4-0.5,0.4H18c-0.2,0-0.4-0.2-0.5-0.4l-2.6-11l-2.6,11c-0.1,0.2-0.3,0.4-0.5,0.4H8.4
			c-0.2,0-0.4-0.2-0.5-0.4l-2.8-13.6v-0.1c0-0.2,0.1-0.3,0.3-0.3h1.8c0.2,0,0.4,0.1,0.4,0.3l2.1,12.3h0.7l2.7-11
			c0.1-0.2,0.3-0.4,0.5-0.4h2.6c0.2,0,0.4,0.2,0.5,0.4l2.7,11h0.7l2.1-12.3c0.1-0.2,0.2-0.3,0.4-0.3h1.8c0.1,0,0.2,0.2,0.2,0.3v0.1
			L21.9,258z"/>
		<path class="st0" d="M27.7,244.4c0-0.2,0.2-0.4,0.4-0.4h9.2c0.2,0,0.4,0.2,0.4,0.4v1.2c0,0.2-0.2,0.4-0.4,0.4H30v4h6.9
			c0.2,0,0.4,0.2,0.4,0.4v1.2c0,0.2-0.2,0.4-0.4,0.4H30v4.6h7.2c0.2,0,0.4,0.2,0.4,0.4v1.2c0,0.2-0.2,0.4-0.4,0.4H28
			c-0.2,0-0.4-0.2-0.4-0.4L27.7,244.4L27.7,244.4z"/>
		<path class="st0" d="M-46.3,251.6v4.5c-0.6,0.2-1.4,0.4-2.5,0.4c-1.3,0-3-0.2-3-2.3c0-1.7,1-1.9,2.1-2.1c0.2,0,0.5-0.1,0.7-0.1
			c0.5-0.1,0.8-0.1,0.8-0.6v-1.1c0-0.3-0.2-0.7-0.7-0.6l-2.4,0.4c-2.1,0.3-4.3,0.7-4.3,4.2c0,4.3,3.6,4.6,6.5,4.6
			c1.5,0,2.8-0.2,3.7-0.4c1.8-0.4,2.5-0.8,2.5-2.8v-7.4c0-1.5-0.3-2.7-1.6-3.5c-0.9-0.5-2.1-0.8-4.1-0.8c-2.7,0-5.2,0.7-5.9,0.9
			c-0.1,0.1-0.3,0.2-0.3,0.4v0.1l0.4,1.7c0,0.2,0.2,0.2,0.3,0.2c0.1,0,0.1,0,0.2,0c0.8-0.2,2.8-0.8,4.6-0.8c1,0,1.6,0.1,2,0.3
			c0.7,0.3,0.8,0.8,0.8,1.6v3.2H-46.3z"/>
		<path class="st0" d="M49.9,251.2v-0.6c1.5-0.3,2.6-1,2.6-3c0-2.5-1.3-3.6-4.4-3.6h-6.6c-0.2,0-0.4,0.2-0.4,0.4V258
			c0,0.2,0.2,0.4,0.4,0.4h6.3c3.2,0,5.1-1.2,5.1-3.9C53,252.3,51.9,251.4,49.9,251.2 M47.9,256.5h-4.3c-0.1,0-0.1-0.1-0.1-0.1v-3.3
			l0,0l0,0V249l0,0l0,0v-3c0-0.1,0.1-0.1,0.1-0.1H48c1.6,0,2.2,0.7,2.2,2.1c0,1.5-0.8,2-2.4,2.1l-2.1,0.1c-0.1,0-0.2,0.1-0.2,0.3
			v1.3c0,0.1,0.1,0.2,0.2,0.3l2.1,0.1c2.2,0.1,2.8,0.7,2.8,2.3C50.6,255.6,50,256.5,47.9,256.5"/>
		<path class="st0" d="M4.4,255.8c-0.1-0.2-0.2-0.3-0.4-0.3H3.7c-0.6,0.2-2.1,0.6-3.4,0.6c-2.9,0-3.8-1.3-3.8-4.9
			c0-3.6,0.9-4.8,3.8-4.8c0.4,0,1.1,0.1,1.8,0.2c0.2,0,0.4-0.1,0.4-0.4l-0.3-1.7c-0.1-0.3-0.3-0.5-0.5-0.6c-0.8-0.1-1.1-0.2-2.1-0.2
			c-5.2,0-6.7,2.4-6.7,7.4c0,4.9,1.4,7.4,6.7,7.4c1.9,0,4.2-0.4,4.9-0.8c0.2-0.1,0.3-0.2,0.3-0.4c0-0.1,0-0.1,0-0.2L4.4,255.8z"/>
	</g>
	<g>
		<path class="st0" d="M-136.6,246.7c2.6,2.6,0.1,9.3-2.5,11.9c-2.6,2.6-2.2-4.3-4.8-6.9c-2.6-2.6-8.8,1.7-4.6-2.5
			C-145.9,246.6-139.2,244.1-136.6,246.7"/>
		<path class="st0" d="M-127.8,246.3c-2.6,2.6-9.3,0.1-11.9-2.5c-2.7-2.7,4.2-2.3,6.8-4.9c2.6-2.6-1.7-8.8,2.5-4.6
			C-127.7,237-125.2,243.7-127.8,246.3"/>
		<path class="st0" d="M-127.3,255.1c-2.6-2.6-0.1-9.3,2.5-11.9c2.6-2.6,2.2,4.3,4.8,6.9c2.6,2.6,8.8-1.7,4.6,2.5
			C-118,255.3-124.7,257.7-127.3,255.1"/>
		<path class="st0" d="M-136.1,255.6c2.6-2.6,9.3-0.1,11.9,2.5s-4.3,2.2-6.9,4.8c-2.6,2.6,1.7,8.8-2.5,4.6
			C-136.2,264.9-138.7,258.2-136.1,255.6"/>
	</g>
</g>
</svg>
