<svg id="Lag_1" data-name="Lag 1" xmlns="http://www.w3.org/2000/svg" viewBox="0 0 115 74"><defs><style>.cls-1{fill:#f7f7f7;}.cls-2{fill:#b9b9b8;}.cls-3{fill:#fff;}.cls-4{fill:#d4d3d2;}.cls-5{fill:#44413f;}.cls-6{fill:#3189dd;}</style></defs><title>DW</title><rect class="cls-1" width="115" height="74"/><path class="cls-2" d="M20,10H95a5,5,0,0,1,5,5V57.29A2.71,2.71,0,0,1,97.29,60H17.71A2.71,2.71,0,0,1,15,57.29V15A5,5,0,0,1,20,10Z"/><rect class="cls-2" x="6" y="61" width="103" height="6" rx="1.44" ry="1.44"/><rect class="cls-3" x="18" y="15" width="79" height="42"/><circle class="cls-1" cx="57.5" cy="12.5" r="1.5"/><path class="cls-4" d="M45,61H70a0,0,0,0,1,0,0v0a2,2,0,0,1-2,2H47a2,2,0,0,1-2-2v0A0,0,0,0,1,45,61Z"/><rect class="cls-4" x="27" y="17" width="61" height="13" rx="2.41" ry="2.41"/><rect class="cls-5" y="3" width="22" height="12"/><rect class="cls-6" x="27" y="32" width="61" height="23" rx="2.34" ry="2.34"/><path class="cls-1" d="M9.1,13h-1V6.84a5,5,0,0,1-.92.67,6.47,6.47,0,0,1-1,.5V7.07a5.83,5.83,0,0,0,1.42-.92,3.62,3.62,0,0,0,.86-1.05H9.1V13Z"/><path class="cls-1" d="M11.12,13.13L13.4,5h0.77L11.9,13.13H11.12Z"/><path class="cls-1" d="M18.27,13h-1V6.84a5,5,0,0,1-.92.67,6.47,6.47,0,0,1-1,.5V7.07a5.83,5.83,0,0,0,1.42-.92,3.62,3.62,0,0,0,.86-1.05h0.62V13Z"/></svg>